<svg width="38" height="24" viewBox="0 0 38 24" fill="none" xmlns="http://www.w3.org/2000/svg">
<path d="M0 2C0 0.89543 0.89543 0 2 0H36C37.1046 0 38 0.895431 38 2V22C38 23.1046 37.1046 24 36 24H2C0.89543 24 0 23.1046 0 22V2Z" fill="#171717"/>
<path d="M14.875 5C11.0842 5 8 8.08412 8 11.875C8 15.6659 11.0842 18.75 14.875 18.75C18.6658 18.75 21.75 15.6659 21.75 11.875C21.75 8.08412 18.6658 5 14.875 5Z" fill="#E72176"/>
<path d="M14.875 5C11.0842 5 8 8.08412 8 11.875C8 15.6659 11.0842 18.75 14.875 18.75C18.6658 18.75 21.75 15.6659 21.75 11.875C21.75 8.08412 18.6658 5 14.875 5Z" stroke="#FFCB00"/>
<path d="M23.125 5C19.3342 5 16.25 8.08412 16.25 11.875C16.25 15.6659 19.3342 18.75 23.125 18.75C26.9158 18.75 30 15.6659 30 11.875C30 8.08412 26.9158 5 23.125 5Z" fill="#FFCB00"/>
<path d="M23.125 5C19.3342 5 16.25 8.08412 16.25 11.875C16.25 15.6659 19.3342 18.75 23.125 18.75C26.9158 18.75 30 15.6659 30 11.875C30 8.08412 26.9158 5 23.125 5Z" stroke="#FFCB00"/>
</svg>
