<svg width="38" height="24" viewBox="0 0 38 24" fill="none" xmlns="http://www.w3.org/2000/svg">
<path d="M0 2C0 0.89543 0.89543 0 2 0H36C37.1046 0 38 0.895431 38 2V22C38 23.1046 37.1046 24 36 24H2C0.89543 24 0 23.1046 0 22V2Z" fill="#171717"/>
<path d="M5.5 8.24512V8.37281C8.20298 9.02716 10.0795 10.6814 10.8225 12.5818L10.0414 8.92C9.91099 8.41956 9.51587 8.26255 9.04833 8.24519L5.5 8.24512Z" fill="#FFCB00"/>
<path d="M14.9405 16.153L16.271 8.24512H18.4251L17.0946 16.153H14.9405Z" fill="#FAFAFA"/>
<path d="M24.7631 8.44955C24.3362 8.28928 23.6674 8.11765 22.8321 8.11765C20.7033 8.11765 19.2037 9.19045 19.1908 10.7274C19.179 11.8635 20.2612 12.4971 21.0789 12.8757C21.9173 13.2626 22.1993 13.5108 22.1952 13.8565C22.19 14.3865 21.5253 14.6289 20.9059 14.6289C20.0438 14.6286 19.5856 14.5089 18.8781 14.2138L18.6005 14.0878L18.298 15.8581C18.8012 16.0789 19.7319 16.2704 20.698 16.2801C22.9622 16.2796 24.4327 15.2201 24.4493 13.5783C24.4575 12.6788 23.8834 11.9943 22.6405 11.4297C21.8874 11.0644 21.4261 10.8203 21.4311 10.4495C21.4311 10.1209 21.8218 9.76947 22.6649 9.76947C23.3694 9.75839 23.8798 9.91208 24.2776 10.0723L24.4704 10.1636L24.7631 8.44955Z" fill="#FAFAFA"/>
<path d="M28.4358 8.24512C27.9196 8.24512 27.5468 8.40376 27.3199 8.9186L24.1275 16.1533H26.4082L26.8516 14.9415H29.5765L29.8297 16.1533H31.8572L30.0834 8.24534H28.4358L28.4358 8.24512ZM27.4567 13.3592C27.6347 12.9038 28.3147 11.1489 28.3147 11.1489C28.3024 11.1697 28.4917 10.6913 28.6005 10.3945L28.7463 11.076C28.7463 11.076 29.1584 12.9637 29.2449 13.3594H27.4567V13.3592Z" fill="#FAFAFA"/>
<path d="M11.0122 13.6659L10.8225 12.5818C10.4293 11.318 9.20919 9.95071 7.84193 9.26564L9.74512 16.153H12.0263L15.4475 8.24512H13.1668L11.0122 13.6659Z" fill="#FAFAFA"/>
</svg>
