<svg width="185" height="56" viewBox="0 0 185 56" fill="none" xmlns="http://www.w3.org/2000/svg">
<path d="M78.472 15.456L71.864 28.196V35H67.944V28.196L61.308 15.456H65.732L69.932 24.388L74.104 15.456H78.472ZM87.4528 18.62V23.52H94.0328V26.628H87.4528V31.808H94.8728V35H83.5328V15.428H94.8728V18.62H87.4528ZM105.155 31.892H111.595V35H101.235V15.456H105.155V31.892ZM120.807 31.892H127.247V35H116.887V15.456H120.807V31.892ZM141.61 35.196C139.781 35.196 138.101 34.7667 136.57 33.908C135.04 33.0493 133.826 31.864 132.93 30.352C132.034 28.8213 131.586 27.0947 131.586 25.172C131.586 23.268 132.034 21.56 132.93 20.048C133.826 18.5173 135.04 17.3227 136.57 16.464C138.101 15.6053 139.781 15.176 141.61 15.176C143.458 15.176 145.138 15.6053 146.65 16.464C148.181 17.3227 149.385 18.5173 150.262 20.048C151.158 21.56 151.606 23.268 151.606 25.172C151.606 27.0947 151.158 28.8213 150.262 30.352C149.385 31.864 148.181 33.0493 146.65 33.908C145.12 34.7667 143.44 35.196 141.61 35.196ZM141.61 31.696C142.786 31.696 143.822 31.4347 144.718 30.912C145.614 30.3707 146.314 29.6053 146.818 28.616C147.322 27.6267 147.574 26.4787 147.574 25.172C147.574 23.8653 147.322 22.7267 146.818 21.756C146.314 20.7667 145.614 20.0107 144.718 19.488C143.822 18.9653 142.786 18.704 141.61 18.704C140.434 18.704 139.389 18.9653 138.474 19.488C137.578 20.0107 136.878 20.7667 136.374 21.756C135.87 22.7267 135.618 23.8653 135.618 25.172C135.618 26.4787 135.87 27.6267 136.374 28.616C136.878 29.6053 137.578 30.3707 138.474 30.912C139.389 31.4347 140.434 31.696 141.61 31.696ZM183.447 15.456L177.987 35H173.367L169.699 21.084L165.863 35L161.271 35.028L156.007 15.456H160.207L163.651 30.632L167.627 15.456H171.995L175.747 30.548L179.219 15.456H183.447Z" fill="white"/>
<path d="M63.92 49.07C63.46 49.07 63.0533 48.99 62.7 48.83C62.3533 48.67 62.08 48.4467 61.88 48.16C61.68 47.8733 61.5733 47.5533 61.56 47.2H62.3C62.3333 47.54 62.4833 47.84 62.75 48.1C63.0167 48.3533 63.4067 48.48 63.92 48.48C64.3933 48.48 64.7667 48.36 65.04 48.12C65.32 47.8733 65.46 47.5633 65.46 47.19C65.46 46.89 65.3833 46.65 65.23 46.47C65.0767 46.2833 64.8867 46.1467 64.66 46.06C64.4333 45.9667 64.12 45.8667 63.72 45.76C63.2533 45.6333 62.8833 45.51 62.61 45.39C62.3367 45.27 62.1033 45.0833 61.91 44.83C61.7167 44.5767 61.62 44.2333 61.62 43.8C61.62 43.44 61.7133 43.12 61.9 42.84C62.0867 42.5533 62.35 42.33 62.69 42.17C63.03 42.01 63.42 41.93 63.86 41.93C64.5067 41.93 65.0267 42.09 65.42 42.41C65.82 42.7233 66.05 43.13 66.11 43.63H65.35C65.3033 43.3433 65.1467 43.09 64.88 42.87C64.6133 42.6433 64.2533 42.53 63.8 42.53C63.38 42.53 63.03 42.6433 62.75 42.87C62.47 43.09 62.33 43.3933 62.33 43.78C62.33 44.0733 62.4067 44.31 62.56 44.49C62.7133 44.67 62.9033 44.8067 63.13 44.9C63.3633 44.9933 63.6767 45.0933 64.07 45.2C64.5233 45.3267 64.89 45.4533 65.17 45.58C65.45 45.7 65.6867 45.8867 65.88 46.14C66.0733 46.3933 66.17 46.7333 66.17 47.16C66.17 47.4867 66.0833 47.7967 65.91 48.09C65.7367 48.3833 65.48 48.62 65.14 48.8C64.8 48.98 64.3933 49.07 63.92 49.07ZM77.7927 44.02C77.7927 44.62 77.596 45.1033 77.2027 45.47C76.8093 45.8367 76.2193 46.02 75.4327 46.02H74.0227V49H73.3227V42.01H75.4327C76.2127 42.01 76.7993 42.1933 77.1927 42.56C77.5927 42.9267 77.7927 43.4133 77.7927 44.02ZM75.4327 45.42C76.526 45.42 77.0727 44.9533 77.0727 44.02C77.0727 43.5533 76.9427 43.2 76.6827 42.96C76.4227 42.72 76.006 42.6 75.4327 42.6H74.0227V45.42H75.4327ZM88.8172 47.34H85.6372L85.0272 49H84.2872L86.8372 42.1H87.6272L90.1672 49H89.4272L88.8172 47.34ZM88.6072 46.76L87.2272 42.98L85.8472 46.76H88.6072ZM96.7706 45.5C96.7706 44.8133 96.9206 44.2 97.2206 43.66C97.5206 43.1133 97.9306 42.69 98.4506 42.39C98.9706 42.0833 99.5506 41.93 100.191 41.93C100.971 41.93 101.637 42.1167 102.191 42.49C102.751 42.8567 103.157 43.3767 103.411 44.05H102.591C102.391 43.5767 102.084 43.2067 101.671 42.94C101.264 42.6733 100.771 42.54 100.191 42.54C99.6773 42.54 99.214 42.66 98.8006 42.9C98.394 43.14 98.074 43.4867 97.8406 43.94C97.6073 44.3867 97.4906 44.9067 97.4906 45.5C97.4906 46.0933 97.6073 46.6133 97.8406 47.06C98.074 47.5067 98.394 47.85 98.8006 48.09C99.214 48.33 99.6773 48.45 100.191 48.45C100.771 48.45 101.264 48.32 101.671 48.06C102.084 47.7933 102.391 47.4267 102.591 46.96H103.411C103.157 47.6267 102.751 48.1433 102.191 48.51C101.631 48.8767 100.964 49.06 100.191 49.06C99.5506 49.06 98.9706 48.91 98.4506 48.61C97.9306 48.3033 97.5206 47.88 97.2206 47.34C96.9206 46.8 96.7706 46.1867 96.7706 45.5ZM111.305 42.58V45.19H113.955V45.77H111.305V48.42H114.255V49H110.605V42H114.255V42.58H111.305ZM132.099 49.07C131.639 49.07 131.232 48.99 130.879 48.83C130.532 48.67 130.259 48.4467 130.059 48.16C129.859 47.8733 129.752 47.5533 129.739 47.2H130.479C130.512 47.54 130.662 47.84 130.929 48.1C131.196 48.3533 131.586 48.48 132.099 48.48C132.572 48.48 132.946 48.36 133.219 48.12C133.499 47.8733 133.639 47.5633 133.639 47.19C133.639 46.89 133.562 46.65 133.409 46.47C133.256 46.2833 133.066 46.1467 132.839 46.06C132.612 45.9667 132.299 45.8667 131.899 45.76C131.432 45.6333 131.062 45.51 130.789 45.39C130.516 45.27 130.282 45.0833 130.089 44.83C129.896 44.5767 129.799 44.2333 129.799 43.8C129.799 43.44 129.892 43.12 130.079 42.84C130.266 42.5533 130.529 42.33 130.869 42.17C131.209 42.01 131.599 41.93 132.039 41.93C132.686 41.93 133.206 42.09 133.599 42.41C133.999 42.7233 134.229 43.13 134.289 43.63H133.529C133.482 43.3433 133.326 43.09 133.059 42.87C132.792 42.6433 132.432 42.53 131.979 42.53C131.559 42.53 131.209 42.6433 130.929 42.87C130.649 43.09 130.509 43.3933 130.509 43.78C130.509 44.0733 130.586 44.31 130.739 44.49C130.892 44.67 131.082 44.8067 131.309 44.9C131.542 44.9933 131.856 45.0933 132.249 45.2C132.702 45.3267 133.069 45.4533 133.349 45.58C133.629 45.7 133.866 45.8867 134.059 46.14C134.252 46.3933 134.349 46.7333 134.349 47.16C134.349 47.4867 134.262 47.7967 134.089 48.09C133.916 48.3833 133.659 48.62 133.319 48.8C132.979 48.98 132.572 49.07 132.099 49.07ZM145.592 42.01V42.59H143.652V49H142.952V42.59H141.002V42.01H145.592ZM155.637 49.07C154.99 49.07 154.404 48.92 153.877 48.62C153.35 48.3133 152.934 47.89 152.627 47.35C152.327 46.8033 152.177 46.1867 152.177 45.5C152.177 44.8133 152.327 44.2 152.627 43.66C152.934 43.1133 153.35 42.69 153.877 42.39C154.404 42.0833 154.99 41.93 155.637 41.93C156.29 41.93 156.88 42.0833 157.407 42.39C157.934 42.69 158.347 43.1133 158.647 43.66C158.947 44.2 159.097 44.8133 159.097 45.5C159.097 46.1867 158.947 46.8033 158.647 47.35C158.347 47.89 157.934 48.3133 157.407 48.62C156.88 48.92 156.29 49.07 155.637 49.07ZM155.637 48.46C156.157 48.46 156.624 48.34 157.037 48.1C157.45 47.86 157.777 47.5167 158.017 47.07C158.257 46.6167 158.377 46.0933 158.377 45.5C158.377 44.9067 158.257 44.3867 158.017 43.94C157.777 43.4933 157.45 43.15 157.037 42.91C156.624 42.67 156.157 42.55 155.637 42.55C155.117 42.55 154.65 42.67 154.237 42.91C153.824 43.15 153.497 43.4933 153.257 43.94C153.017 44.3867 152.897 44.9067 152.897 45.5C152.897 46.0933 153.017 46.6167 153.257 47.07C153.497 47.5167 153.824 47.86 154.237 48.1C154.65 48.34 155.117 48.46 155.637 48.46ZM171.448 49H170.748L166.878 43.12V49H166.178V42.01H166.878L170.748 47.88V42.01H171.448V49ZM179.533 42.58V45.19H182.183V45.77H179.533V48.42H182.483V49H178.833V42H182.483V42.58H179.533Z" fill="white"/>
<path d="M3.07644 12.7526L24.3632 1.07738C25.5835 0.408044 27.0641 0.421207 28.2724 1.11213L48.9856 12.9566C50.2313 13.669 51 14.994 51 16.429V39.9693C51 41.4234 50.2109 42.7629 48.939 43.4678L28.2414 54.9392C27.0489 55.6002 25.6018 55.6082 24.402 54.9604L3.09967 43.4592C1.80622 42.7609 1 41.4094 1 39.9394V16.2597C1 14.7993 1.79595 13.4549 3.07644 12.7526Z" fill="#171717" stroke="url(#paint0_linear)"/>
<path d="M25.9128 9.98094C26.1812 9.86816 26.5977 9.99544 26.8873 9.9817C27.4779 9.95364 28.1953 9.65049 28.5292 10.3696C28.5326 10.3773 28.5377 10.3837 28.5416 10.3912C27.8289 10.3042 27.1098 10.2575 26.3871 10.2575C26.0704 10.2575 25.7543 10.2677 25.4391 10.2841C25.5502 10.1819 25.6639 10.0856 25.9128 9.98094Z" fill="url(#paint1_linear)"/>
<path d="M10.3649 19.0748C10.7132 18.5839 10.965 18.1448 11.5033 17.8362C11.6588 17.7473 11.8161 17.6607 11.9725 17.5724C11.1676 18.6733 10.4931 19.862 9.95912 21.1134C9.93144 21.0616 9.90169 21.0091 9.86968 20.9534C9.46692 20.2499 9.9706 19.6304 10.3649 19.0748Z" fill="url(#paint2_linear)"/>
<path d="M16.9883 44.1254C16.458 43.819 16.1035 43.5889 15.7996 43.0344C15.6572 42.7744 15.5533 42.4951 15.4356 42.2232C15.6742 42.4085 15.9161 42.5902 16.1649 42.764C17.0214 43.3626 17.9222 43.8781 18.8558 44.3131C18.1306 44.7015 17.6978 44.5353 16.9883 44.1254Z" fill="url(#paint3_linear)"/>
<path d="M43.8511 33.8562C43.8101 34.1435 43.5966 34.4427 43.512 34.7254C43.3045 35.419 43.4036 36.3108 42.5024 36.4044C42.3825 36.417 42.2704 36.4488 42.165 36.4942C42.7897 35.3202 43.2776 34.0833 43.6244 32.8061C43.751 33.1563 43.9153 33.4081 43.8511 33.8562Z" fill="url(#paint4_linear)"/>
<path d="M33.9798 43.7301L33.9809 43.7323C33.8734 43.7745 33.7666 43.8161 33.6619 43.8517C33.3855 43.9449 32.9155 43.8764 32.8221 44.2336C32.8137 44.267 32.8432 44.2926 32.8754 44.2865C33.1995 44.2239 33.542 44.195 33.8581 44.1013C33.9026 44.0879 33.9466 44.074 33.9911 44.0603C33.8527 44.2792 33.7354 44.5092 33.6019 44.7317C33.3279 45.1895 32.7139 45.2212 32.2759 45.409C31.6832 45.6626 31.0211 46.3158 30.4399 45.7483C30.3143 45.6253 30.1842 45.5399 30.049 45.4778C30.3267 45.3797 30.592 45.2534 30.8453 45.0962C30.9017 45.0606 30.8756 44.98 30.8123 44.9755C30.4094 44.9458 29.9817 45.1071 29.5925 45.2014C29.5155 45.2206 29.4359 45.233 29.3551 45.2432L29.3513 45.2215C28.379 45.3887 27.3818 45.4736 26.3872 45.4736C19.678 45.4736 13.517 41.5176 10.6772 35.5107C10.7051 35.2111 10.5043 34.9347 10.3795 34.6648C10.2127 34.3035 9.95263 33.9421 9.85867 33.5534C9.84248 33.4865 9.74965 33.4935 9.73007 33.5534C9.625 33.8749 9.79447 34.1447 9.92816 34.4351C9.77281 34.357 9.60015 34.305 9.40677 34.2525C8.69936 34.0601 8.74021 32.3226 8.60031 31.7106C8.39677 30.8197 7.65263 30.248 8.43405 29.3581C8.51445 29.2665 8.57828 29.1801 8.63289 29.0948C8.6632 29.2951 8.70651 29.4935 8.74963 29.6831C8.84189 30.0889 8.87108 30.5305 9.10042 30.8891C9.15503 30.9746 9.27026 30.9006 9.2326 30.812C9.07349 30.4381 9.15427 29.9861 9.08686 29.5903C9.04054 29.3179 9.0364 29.0383 9.01719 28.7618L9.03753 28.7612C9.02981 28.5498 9.02586 28.333 9.02586 28.1167C9.02586 22.8332 11.4428 17.8472 15.5421 14.5634C15.5664 14.5683 15.5918 14.5681 15.6165 14.5613C15.7848 14.5154 15.8592 14.4264 15.9903 14.3123C16.1878 14.1404 16.4229 14.0151 16.6476 13.8835C16.8242 13.7798 16.9995 13.6647 17.1481 13.523C17.3036 13.3743 17.4232 13.1145 17.6431 13.0473C17.7116 13.0266 17.7131 12.9278 17.6431 12.9074C17.2307 12.7881 16.8671 13.2745 16.5357 13.449C16.5307 13.4516 16.5252 13.4541 16.5201 13.4569C16.6175 13.2508 16.6465 13.0339 16.6608 12.7719C16.7028 12.0014 18.3686 11.6767 18.998 11.387C19.8166 11.0101 20.2598 10.1847 21.2655 10.7516C21.5368 10.9047 21.7607 10.9726 21.994 10.9758L21.9992 10.9967C21.8377 11.0455 21.6914 11.0941 21.5826 11.1253C21.3135 11.2031 20.8851 11.3115 20.8424 11.6381C20.8371 11.678 20.8853 11.6906 20.9132 11.6786C21.2129 11.5517 21.5485 11.4453 21.8697 11.3898C22.1279 11.3454 22.3845 11.2915 22.6417 11.2428C22.8919 11.1953 23.0642 11.2315 23.2533 11.0711C23.2642 11.0619 23.2706 11.051 23.2746 11.0397C24.2974 10.8546 25.3396 10.7597 26.3872 10.7597C30.3915 10.7597 34.2989 12.1554 37.3894 14.6894L37.3962 14.6814C37.4585 14.7383 37.5219 14.7936 37.5822 14.8537C37.9102 15.1795 38.149 15.5568 38.531 15.8277C38.5756 15.8589 38.6302 15.7985 38.6037 15.7552C38.4862 15.5634 38.4082 15.3561 38.3067 15.1564C38.2009 14.948 38.0158 14.7684 37.8594 14.5965C38.1512 14.6445 38.4201 14.5764 38.7575 14.5316C39.3757 14.4495 40.1797 16.2002 40.6282 16.5814C41.2025 17.0699 41.9231 17.5143 41.7199 18.3793C41.6126 18.8368 41.5932 19.134 41.7363 19.4757C41.5254 19.156 41.3074 18.8563 41.0432 18.571C41.0257 18.5519 40.9997 18.5762 41.0095 18.5973C41.1959 18.9985 41.3622 19.4051 41.5648 19.7994C41.7056 20.0733 41.8467 20.3943 42.0564 20.636C43.1655 22.959 43.7486 25.5219 43.7486 28.1167C43.7486 34.8135 40.0053 40.7961 33.9798 43.7301Z" fill="url(#paint5_linear)"/>
<path d="M17.0914 15.0019C17.0895 15.0121 17.0878 15.0222 17.0863 15.0328C17.0304 15.0991 16.9935 15.1802 16.9596 15.2638C16.9537 15.241 16.9475 15.219 16.9428 15.194C16.9773 15.1239 17.0317 15.0605 17.0914 15.0019ZM17.2064 15.4809C17.2045 15.4758 17.2019 15.4717 17.1998 15.4666C17.2047 15.4531 17.21 15.4391 17.2149 15.4252C17.2241 15.4258 17.2324 15.4233 17.2413 15.4218C17.2546 15.4478 17.275 15.4683 17.3 15.4819C17.2996 15.4832 17.2993 15.4845 17.2987 15.4858C17.2812 15.5312 17.2866 15.5709 17.3045 15.6039C17.2642 15.6044 17.2281 15.5971 17.1938 15.5851C17.2128 15.5517 17.2209 15.516 17.2064 15.4809ZM17.467 14.7287C17.4802 14.7104 17.4849 14.6925 17.4862 14.675C17.5164 14.6538 17.5465 14.6329 17.5774 14.6123C17.5696 14.6477 17.5599 14.6826 17.5512 14.7178C17.5188 14.7522 17.4881 14.7882 17.4606 14.8255C17.438 14.856 17.4151 14.8887 17.3926 14.9228C17.4056 14.853 17.4271 14.7841 17.467 14.7287ZM17.6935 15.512C17.6937 15.5118 17.6937 15.5116 17.6937 15.5114C17.6973 15.5199 17.7009 15.5282 17.7058 15.5359C17.6922 15.5393 17.679 15.5425 17.6655 15.5455C17.6764 15.5363 17.6868 15.5261 17.6935 15.512ZM17.8521 14.7948C17.8562 14.7671 17.8611 14.7396 17.8641 14.7119C17.8745 14.6989 17.8837 14.6852 17.895 14.6724C17.9314 14.631 17.9144 14.5786 17.8745 14.5589C17.8758 14.5156 17.8747 14.4719 17.8734 14.4284C17.9063 14.4088 17.9391 14.389 17.9716 14.3696C18.0799 14.305 18.1901 14.2433 18.3002 14.1817C18.2225 14.3755 18.1349 14.5485 18.0099 14.7279C17.9351 14.8353 17.8613 14.9435 17.8016 15.0582C17.8293 14.972 17.8532 14.8837 17.8521 14.7948ZM18.2661 15.3435C18.1886 15.3766 18.11 15.4075 18.031 15.4363C18.085 15.2282 18.2247 15.0343 18.3531 14.8387C18.2948 15.0004 18.2447 15.1806 18.2661 15.3435ZM18.7209 13.9166C18.7401 13.9028 18.761 13.8904 18.7817 13.8778C18.7798 13.8863 18.7766 13.8942 18.777 13.9036C18.7813 14.0736 18.6804 14.2324 18.5789 14.3879C18.606 14.2836 18.613 14.1761 18.5842 14.0623C18.5806 14.0484 18.5748 14.0365 18.5682 14.0258C18.6207 13.9917 18.6719 13.9559 18.7209 13.9166ZM18.7975 14.6329C18.7806 14.6626 18.7636 14.692 18.747 14.7221C18.7448 14.7261 18.7421 14.7306 18.7397 14.7347C18.7542 14.6984 18.7693 14.6624 18.7858 14.6266C18.789 14.6297 18.7936 14.6302 18.7975 14.6329ZM18.9709 14.9034C18.9717 14.9402 18.9775 14.9756 18.9913 15.0087C18.9664 15.0204 18.9412 15.0322 18.9161 15.0439C18.9333 14.9968 18.9513 14.9498 18.9709 14.9034ZM19.2374 13.7228C19.2215 13.7725 19.2023 13.8206 19.1835 13.8684C19.1833 13.8686 19.1831 13.8686 19.1829 13.8686C19.1221 13.9059 19.0673 13.9522 19.0172 14.0034C19.0189 13.9616 19.0182 13.9185 19.0114 13.872C19.0058 13.8305 18.9803 13.8068 18.9491 13.7953C19.0425 13.7582 19.1408 13.7332 19.2374 13.7228ZM19.3773 14.6882C19.3916 14.7234 19.4176 14.753 19.4503 14.7699C19.4104 14.794 19.3694 14.8168 19.3279 14.8392C19.3409 14.7874 19.3581 14.7375 19.3773 14.6882ZM19.4064 13.721C19.4825 13.7283 19.5524 13.7492 19.6126 13.7833C19.5985 13.7918 19.5876 13.8051 19.5817 13.8224C19.5659 13.7285 19.458 13.723 19.3968 13.7737C19.3995 13.756 19.4044 13.7388 19.4064 13.721ZM19.7674 13.9473C19.8177 14.0539 19.8295 14.2002 19.7813 14.3969C19.7723 14.4335 19.7789 14.4653 19.7941 14.4907C19.7682 14.5204 19.7433 14.5472 19.7211 14.5702C19.8043 14.3821 19.7998 14.1537 19.7674 13.9473ZM19.4887 15.0812C19.8508 14.8709 20.3939 14.4419 20.3878 13.9693C20.3835 13.6244 20.2509 13.2581 19.8499 13.3643C19.8348 13.3683 19.8386 13.3901 19.8533 13.3907C20.3108 13.4093 20.2739 13.7245 20.111 14.036C20.0792 13.795 19.9241 13.5664 19.6942 13.4317C19.1351 13.1043 18.6073 13.6451 18.1492 13.9011C17.7779 14.1088 15.9957 15.0226 16.6719 15.6975C17.3911 16.4147 18.8071 15.4774 19.4887 15.0812Z" fill="#171717"/>
<path d="M22.2484 14.2263C22.1921 14.5349 21.9814 14.7607 21.7451 14.9508C21.6155 15.055 21.4752 15.1444 21.3316 15.2272C21.2297 15.2862 21.0853 15.3323 21.035 15.4462C21.0158 15.4895 21.0299 15.5374 21.0783 15.5526C21.2084 15.5935 21.344 15.4976 21.4523 15.4338C21.6308 15.3284 21.7997 15.2037 21.9528 15.0642C22.1817 14.8554 22.4248 14.5543 22.3393 14.2263C22.328 14.1832 22.257 14.1792 22.2484 14.2263Z" fill="#171717"/>
<path d="M15.1295 17.0738C15.1406 17.1001 15.1568 17.125 15.1835 17.1443C16.1398 17.8433 17.2479 17.6029 18.3029 17.2496C18.8976 17.0502 19.4802 16.7534 19.9995 16.4047C20.4549 16.0988 20.6986 15.6482 21.0735 15.2675C21.1046 15.2361 21.0588 15.1932 21.026 15.2199C20.6928 15.4925 20.4167 15.8168 20.0693 16.0751C19.6057 16.42 19.0053 16.6048 18.4679 16.7955C18.4442 16.804 18.4199 16.811 18.396 16.8192C18.3913 16.8166 18.3869 16.8142 18.3817 16.8128C18.8838 16.657 19.3527 16.3916 19.7899 15.9934C19.8219 15.9641 19.7886 15.9006 19.7456 15.9176C19.2393 16.1178 18.8192 16.451 18.2873 16.6003C18.2092 16.6222 18.131 16.6372 18.0527 16.6481C18.1983 16.5755 18.3395 16.4866 18.485 16.3774C18.524 16.3483 18.4895 16.2835 18.4462 16.3106C18.1003 16.528 17.6351 16.573 17.2291 16.6005C17.759 16.5022 18.27 16.333 18.4877 16.2455C19.2717 15.9302 20.0271 15.4742 20.7127 14.9731C20.7236 15 20.7587 15.0166 20.7897 15.0031C21.1716 14.8378 22.7598 14.1642 22.1266 13.496C21.796 13.1475 21.2947 13.0943 20.8451 13.0173C20.249 12.9154 19.4504 12.8083 18.8844 13.0705C18.858 13.0828 18.8786 13.1172 18.9027 13.1136C19.4037 13.038 20.0426 13.1601 20.5374 13.2296C20.917 13.2827 21.3139 13.3478 21.6659 13.5063C22.3145 13.7981 21.6886 14.2301 21.1865 14.5654C21.3699 14.3444 21.4521 14.0916 21.3926 13.7586C21.391 13.7501 21.3783 13.7507 21.3763 13.7586C21.169 14.646 19.8694 15.1476 19.1358 15.5512C18.3963 15.9577 16.2059 17.0862 15.8525 15.7039C15.8346 15.6337 15.7414 15.6425 15.7194 15.7039C15.4814 16.3722 15.8101 16.6214 16.3195 16.6675C16.3016 16.6764 16.2827 16.6835 16.2658 16.6946C16.2266 16.7204 16.2159 16.7641 16.2281 16.8023C16.2172 16.798 16.2067 16.795 16.1959 16.7903C16.0191 16.7133 15.8949 16.9296 16.0463 17.0459C15.6845 16.9254 15.3663 16.7165 14.9976 16.554C14.8466 16.4874 14.7137 16.651 14.8223 16.7812C14.9172 16.8945 15.0206 16.9902 15.1295 17.0738Z" fill="#171717"/>
<path d="M21.9243 42.0907C22.5622 41.7811 22.8424 41.1127 22.8908 40.4456C22.893 40.4158 22.8484 40.4113 22.8407 40.4386C22.7746 40.6681 22.6366 40.9385 22.4532 41.1839C22.4285 41.1658 22.3933 41.162 22.3673 41.1871C22.2319 41.3168 22.0308 41.4527 21.8128 41.5414C21.7554 41.5559 21.6989 41.5761 21.643 41.5989C21.434 41.6552 21.221 41.6578 21.0434 41.5608C20.8267 41.4424 20.7813 41.1876 20.6975 40.9624C20.648 40.3992 20.9798 39.7011 21.6211 39.6849C21.6337 39.6845 21.6413 39.6651 21.6281 39.6593C21.3788 39.547 21.1615 39.6009 20.9602 39.7248C20.9468 39.664 20.8924 39.6124 20.8258 39.6122C20.32 39.6114 19.9698 40.187 19.9203 40.6363C19.863 41.1539 20.0506 41.7005 20.4729 42.0214C20.9205 42.3609 21.4381 42.3268 21.9243 42.0907Z" fill="#171717"/>
<path d="M14.988 29.2257C14.9961 29.2198 15.0044 29.2161 15.0125 29.2104C15.0106 29.2162 15.0076 29.2217 15.0061 29.2281C14.9903 29.2371 14.9763 29.249 14.9622 29.2601C14.959 29.2579 14.9558 29.2558 14.9524 29.2535C14.9645 29.2445 14.9754 29.2347 14.988 29.2257ZM15.4489 30.7393C15.4117 30.7629 15.3797 30.7971 15.3591 30.838C15.3441 30.8118 15.3294 30.7855 15.3166 30.7578C15.362 30.7557 15.4064 30.7497 15.4489 30.7393ZM16.1259 30.8873C16.1328 30.8823 16.1392 30.8764 16.1454 30.8704C16.1812 30.8725 16.217 30.8723 16.2531 30.8687C16.1799 30.9079 16.1006 30.9308 16.0214 30.9327C16.0575 30.9246 16.0923 30.9105 16.1259 30.8873ZM16.7828 29.6307C16.8248 29.6987 16.861 29.7708 16.8911 29.8468C16.8741 29.8359 16.8572 29.8244 16.8402 29.8139C16.8276 29.7945 16.8161 29.7742 16.8018 29.7555C16.7992 29.7229 16.792 29.6907 16.7809 29.6591C16.7815 29.6497 16.7826 29.6403 16.7828 29.6307ZM15.4569 32.0551C17.0082 32.5302 19.3024 30.9615 18.4048 29.2353C18.3327 29.0965 18.1272 29.1679 18.1231 29.3115C18.1108 29.7412 18.1088 30.1308 17.9606 30.4985C18.0046 29.9318 17.8346 29.304 17.6403 28.7992C17.626 28.7621 17.5655 28.7643 17.5671 28.8092C17.5878 29.4639 17.7764 30.1436 17.4867 30.7634C17.3744 31.0037 17.185 31.1818 16.9615 31.3042C17.269 30.9438 17.455 30.4497 17.4206 30.0378C17.3208 28.837 15.9782 28.2906 14.9637 28.7175C14.5715 28.8828 14.3397 29.1615 14.2333 29.4878C14.1036 29.713 14.0326 29.9945 14.0123 30.3189C13.9563 31.2293 14.6623 31.8119 15.4569 32.0551Z" fill="#171717"/>
<path d="M15.5389 27.9886C15.6299 27.9766 15.6348 27.8498 15.5389 27.8434C15.2429 27.8237 14.9496 27.8436 14.673 27.9084C15.1207 27.6981 15.6116 27.6013 16.1138 27.5301C16.1801 27.5207 16.1671 27.4262 16.1138 27.4089C15.1757 27.1031 14.2945 27.4881 13.5545 28.1089C12.9505 28.616 12.6769 29.9745 13.1719 30.6179C13.1924 30.6445 13.219 30.6626 13.2476 30.6744C13.3058 30.8567 13.3848 31.0224 13.485 31.1563C13.5517 31.2457 13.6974 31.2214 13.7008 31.0983C13.717 30.5104 13.4777 29.9809 13.5978 29.3795C13.7716 28.5079 14.7432 28.0948 15.5389 27.9886Z" fill="#171717"/>
<path d="M37.0502 32.7469C36.9762 32.9446 36.8599 33.1202 36.7034 33.2565C36.7045 33.2457 36.7077 33.2367 36.7087 33.226C36.796 33.1334 36.8689 33.0306 36.9195 32.9165C36.9455 32.858 36.8921 32.7973 36.8309 32.828C36.7303 32.8787 36.6307 32.9238 36.5313 32.9664C36.564 32.9223 36.5953 32.8762 36.622 32.8271C36.6539 32.7685 36.6301 32.7143 36.5874 32.6867C36.6814 32.5771 36.7651 32.4544 36.8367 32.3198C36.8533 32.2885 36.8518 32.2593 36.8414 32.2349C36.8565 32.2253 36.8698 32.2136 36.8811 32.1995C36.9726 32.3552 37.0472 32.5201 37.0999 32.6899C37.0787 32.7002 37.061 32.7189 37.0502 32.7469ZM36.2724 31.6366C36.4032 31.8053 36.516 31.993 36.613 32.1842C36.6222 32.2021 36.635 32.2159 36.6495 32.2277C36.5236 32.3333 36.3946 32.4258 36.2605 32.5035C36.3951 32.2541 36.3522 31.9333 36.2724 31.6366ZM36.0378 31.5169C36.034 31.5325 36.0306 31.5482 36.0274 31.5638C36.0203 31.5739 36.0152 31.5856 36.0155 31.6003C36.0159 31.6125 36.0146 31.6235 36.0144 31.6353C36.0052 31.6933 35.9988 31.7513 35.9928 31.8083C35.9214 32.1016 35.6868 32.3049 35.429 32.4681C35.1982 32.4911 34.957 32.4517 34.7344 32.4971C34.7271 32.4896 34.7199 32.482 34.7126 32.4743C34.9442 32.4402 35.1824 32.3461 35.3415 32.2614C35.7212 32.0596 35.8551 31.6688 35.8894 31.2656C35.8898 31.2615 35.8883 31.2581 35.8881 31.2541C35.9658 31.3113 36.0385 31.3759 36.1069 31.4463C36.0752 31.4548 36.0479 31.4778 36.0378 31.5169ZM35.2409 33.8171C35.239 33.8075 35.236 33.7984 35.2326 33.7894C35.3341 33.7888 35.4367 33.7811 35.5388 33.7674C35.442 33.7886 35.3428 33.805 35.2409 33.8171ZM34.5132 31.6325C34.5126 31.6291 34.5101 31.6267 34.5092 31.6235C34.628 31.628 34.7591 31.6011 34.8419 31.5854C34.8532 31.5834 34.8639 31.5796 34.8749 31.5768C34.8476 31.5877 34.8193 31.5977 34.7903 31.6056C34.7107 31.627 34.6133 31.6297 34.5132 31.6325ZM34.3356 33.7075C34.3316 33.6998 34.3283 33.6917 34.3245 33.684C34.3373 33.6887 34.3492 33.69 34.3608 33.6881C34.4203 33.7258 34.4796 33.7627 34.5399 33.7992C34.467 33.7779 34.3987 33.748 34.3356 33.7075ZM33.9102 31.5698C33.7287 31.9491 33.6534 32.3723 33.6638 32.7926C33.6408 32.797 33.6216 32.8115 33.606 32.8326C33.5621 32.5539 33.5662 32.2667 33.6199 31.9877C33.6681 31.7372 33.8033 31.5598 33.982 31.4326C33.9551 31.4804 33.931 31.5269 33.9102 31.5698ZM34.8713 31.1508C34.9423 31.1512 35.0135 31.1559 35.0844 31.1615C34.9807 31.2056 34.8728 31.2263 34.7564 31.2347C34.7933 31.2069 34.8316 31.1788 34.8713 31.1508ZM35.5552 31.1781C35.5576 31.1715 35.5572 31.1656 35.558 31.1592C35.5751 31.156 35.5925 31.1545 35.6096 31.1504C35.6248 31.1463 35.6373 31.1385 35.6486 31.1293C35.6913 31.1476 35.7335 31.167 35.7751 31.1873C35.7497 31.195 35.7278 31.2127 35.7201 31.2428C35.6305 31.5896 35.4015 31.8328 35.065 31.9512C35.0093 31.971 34.9489 31.9823 34.8871 31.9915C34.9259 31.9764 34.9615 31.9612 34.992 31.947C35.3168 31.7951 35.4392 31.493 35.5552 31.1781ZM36.5388 35.2059C36.4492 35.2526 36.5128 35.4096 36.6085 35.3708C37.012 35.2088 37.6151 35.0472 37.8418 34.6348C38.1483 34.0784 38.1182 33.475 37.9845 32.871C37.72 31.6758 36.7838 30.5791 35.5941 30.2585C34.8585 30.0605 34.1181 30.3338 33.5325 30.8087C33.4691 30.8447 33.4067 30.8827 33.3459 30.9236C32.579 31.1781 32.2179 32.412 32.1685 33.1087C32.1007 34.0708 32.8306 35.6491 33.9912 35.4493C34.0993 35.4309 34.0882 35.2927 34.0183 35.2413C33.8048 35.0847 33.5824 34.9729 33.3744 34.8272C33.3793 34.8287 33.3834 34.8313 33.3885 34.8326C33.4374 34.846 33.4642 34.7958 33.4452 34.757C33.6924 34.9706 33.9893 35.1399 34.3316 35.2443C34.4011 35.2652 34.4616 35.1689 34.4041 35.1195C33.696 34.507 33.0132 33.7331 33.003 32.883C33.1036 33.3907 33.3102 33.8749 33.5047 34.074C33.7914 34.3671 34.1313 34.5631 34.4887 34.6717C34.5096 34.6811 34.5292 34.6924 34.5508 34.7013C34.5685 34.7088 34.584 34.7086 34.5981 34.7048C35.4851 34.9258 36.459 34.5992 37.0062 33.7717C37.0726 33.671 36.9307 33.5814 36.8487 33.6505C36.6307 33.834 36.3916 33.9844 36.1413 34.0949C36.1624 34.0608 36.1799 34.026 36.1954 33.9899C36.217 33.9763 36.2379 33.9622 36.2588 33.9477C36.4652 33.8973 36.6738 33.7851 36.7891 33.6902C36.9994 33.5174 37.106 33.2964 37.1754 33.0515C37.2067 33.3355 37.1705 33.6213 37.0408 33.8858C36.7262 34.5281 35.9086 34.9029 35.3927 35.3761C35.3727 35.3944 35.3934 35.4303 35.4196 35.422C36.337 35.1291 37.218 34.6589 37.5667 33.7064C37.6062 33.5978 37.6296 33.4878 37.643 33.3775C37.6746 33.626 37.6735 33.8782 37.632 34.1233C37.5328 34.7107 37.008 34.9616 36.5388 35.2059Z" fill="#171717"/>
<path d="M33.8974 29.4708C32.6484 29.6256 31.4848 30.4725 31.0367 31.6656C30.6382 32.7244 30.5175 34.4792 31.4031 35.3297C31.455 35.3796 31.546 35.3145 31.5048 35.2512C30.9448 34.3864 31.0101 32.9157 31.3302 31.9803C31.7866 30.6481 33.1043 29.97 34.425 29.877C35.8234 29.7788 37.1193 30.1242 38.1449 31.0899C39.1022 31.9916 38.7876 33.5855 38.8361 34.7257C38.8378 34.7703 38.8936 34.7731 38.9094 34.7358C39.414 33.5367 38.8922 31.7555 38.1813 30.7403C37.2739 29.4452 35.3124 29.2957 33.8974 29.4708Z" fill="#171717"/>
<path d="M31.8923 34.8364C32.0218 36.3947 34.2648 37.0504 35.5218 37.1016C35.9474 37.1191 36.4318 37.0713 36.8924 36.9444C35.8197 37.4388 34.6182 37.3961 33.3018 37.1972C33.2486 37.1891 33.231 37.2562 33.28 37.2767C34.4 37.748 35.4226 37.979 36.6007 37.564C37.3695 37.2933 38.1165 36.8188 38.4134 36.036C38.4212 36.0157 38.4196 35.9971 38.4142 35.9796C38.5901 35.7233 38.6994 35.4188 38.7119 35.0599C38.7121 35.0533 38.7013 35.0518 38.7 35.0582C38.4773 36.4098 36.3731 36.8169 35.2817 36.7337C33.855 36.6254 32.9477 35.7393 31.9928 34.795C31.9586 34.7611 31.8879 34.7837 31.8923 34.8364Z" fill="#171717"/>
<path d="M37.8708 27.6746C38.6027 27.5091 38.4754 26.3174 37.9868 25.9679C37.8932 25.9013 37.7812 26.0107 37.8049 26.1077C37.8503 26.2916 38.0666 27.4153 37.6222 27.131C37.3453 26.9537 37.1483 26.5929 37.008 26.3055C36.8651 26.012 36.8495 25.6548 36.9254 25.343C36.9883 25.0852 37.3291 24.7022 37.6273 24.9651C37.7878 25.1067 37.8377 25.3526 37.9845 25.5121C38.0391 25.5714 38.1154 25.5068 38.106 25.4415C38.0243 24.874 37.4432 24.2257 36.8738 24.7576C36.4049 25.1957 36.3999 25.9608 36.6443 26.5179C36.8245 26.9294 37.2963 27.8046 37.8708 27.6746Z" fill="#171717"/>
<path d="M14.3161 24.569C14.349 24.5199 14.2794 24.4764 14.2394 24.5099C13.7141 24.9495 13.0841 24.8735 12.5397 24.5357C12.2757 24.3719 12.0673 24.1408 11.9073 23.8774C11.6785 23.5008 11.7508 23.0984 11.7353 22.6855C11.731 22.5746 11.5664 22.5112 11.5122 22.6251C10.8106 24.0953 13.3104 26.0706 14.3161 24.569Z" fill="#171717"/>
<path d="M31.1995 27.5205C31.4876 27.5261 31.777 27.474 32.0594 27.3369C32.1259 27.3047 32.1291 27.1885 32.0594 27.1572C31.9504 27.1085 31.838 27.0817 31.7235 27.0667C31.8453 27.0488 31.9557 27.0091 32.0276 26.9326C32.0673 26.8901 32.0705 26.8221 32.0276 26.7799C31.8425 26.5993 31.5608 26.6978 31.3232 26.7046C31.0231 26.7129 30.7387 26.5929 30.4439 26.5585C30.3708 26.55 30.3411 26.6666 30.4062 26.6974C30.6644 26.8196 30.889 26.977 31.1729 27.0377C31.2004 27.0435 31.2304 27.049 31.262 27.0541C31.1123 27.0597 30.9621 27.0686 30.8131 27.0633C30.2362 27.0439 29.6444 26.7746 29.1398 26.5163C29.0579 26.4741 28.9952 26.5858 29.0688 26.6381C29.332 26.8264 29.6267 27.0168 29.9396 27.1725C29.4826 27.1619 29.0196 27.1619 28.5798 27.0187C27.3911 26.631 26.8799 25.1851 27.3615 24.0909C27.3802 24.0495 27.3385 23.9883 27.2919 24.021C26.5042 24.5752 26.8934 26.0813 27.4365 26.6954C28.2561 27.6219 29.9238 27.9387 31.0982 27.6161C31.1536 27.601 31.1865 27.5638 31.1995 27.5205Z" fill="#171717"/>
<path d="M28.6078 35.8577C28.6259 35.8562 28.6444 35.8564 28.6613 35.853C28.6741 35.8502 28.6845 35.8449 28.6946 35.8394C28.7041 35.8664 28.7127 35.8937 28.7202 35.9215C28.6901 35.8937 28.651 35.8728 28.6078 35.8577ZM27.7792 35.7709C27.7498 35.7092 27.7417 35.6483 27.756 35.5924C27.882 35.5512 28.0294 35.5495 28.1578 35.5489C28.255 35.5483 28.4276 35.5028 28.3981 35.3725C28.4613 35.4373 28.5171 35.5073 28.5655 35.5819C28.3019 35.529 27.9554 35.5713 27.7792 35.7709ZM28.0324 35.091C28.039 35.0947 28.0458 35.0991 28.0527 35.103C28.0347 35.1057 28.0162 35.1096 27.998 35.1147C28.01 35.1074 28.0211 35.0993 28.0324 35.091ZM28.2651 35.251C28.2657 35.2512 28.2663 35.2516 28.2666 35.2522C28.2661 35.2518 28.2653 35.2518 28.2648 35.2518C28.265 35.2514 28.2651 35.2512 28.2651 35.251ZM28.7227 37.0788C29.4034 36.471 29.2458 35.6504 28.6879 34.9983C28.4295 34.6961 28.0467 34.5321 27.6376 34.4568C27.5762 34.4337 27.5133 34.4242 27.4498 34.4282C27.0697 34.3832 26.6797 34.4071 26.353 34.4638C25.5353 34.6061 24.767 35.2043 24.54 36.011C24.3293 36.7578 25.0229 37.6776 25.729 37.832C25.7859 37.8446 25.851 37.7979 25.8539 37.742C25.9454 37.7749 26.0427 37.7917 26.1453 37.7896C26.2239 37.7881 26.28 37.7004 26.2368 37.6301C26.0269 37.2878 25.7484 37.0568 25.5707 36.7418C25.6226 36.7497 25.6795 36.7237 25.7064 36.6559C25.73 36.5971 25.7401 36.5335 25.7435 36.4674C25.8661 36.7851 26.116 37.2185 26.4954 37.1244C26.5434 37.1125 26.5513 37.0445 26.5091 37.0206C26.2854 36.8926 26.1715 36.5964 26.0631 36.3731C25.8542 35.9424 26.0068 35.59 26.1295 35.1799C26.2031 35.1543 26.2796 35.1332 26.3577 35.1162C26.3016 35.2045 26.2562 35.2928 26.2259 35.3678C26.0369 35.8379 26.0919 36.3644 26.5504 36.6384C26.6291 36.6853 26.7251 36.5678 26.6503 36.5088C26.3174 36.2452 26.3466 35.8396 26.5033 35.4851C26.5332 35.4179 26.5697 35.3621 26.6095 35.3107C26.5788 35.5188 26.5906 35.7581 26.605 35.9496C26.6193 36.1475 26.7225 36.2938 26.9072 36.3601C26.9755 36.3846 27.0377 36.2819 26.9799 36.2354C26.7763 36.0714 26.8876 35.5476 26.9264 35.3203C26.9431 35.2222 26.9847 35.1343 27.042 35.0578C27.0565 35.0586 27.0714 35.0588 27.0855 35.0594C27.0188 35.2262 27.0077 35.429 26.9925 35.599C26.9731 35.8212 27.0134 36.0355 27.2003 36.1695C27.3112 36.2492 27.4101 36.1016 27.3668 36.0031C27.2647 35.7711 27.2909 35.3105 27.4611 35.1064C27.5396 35.0127 27.6556 34.9918 27.7707 34.969C27.7232 35.0012 27.6794 35.0394 27.6451 35.0759C27.528 35.1998 27.4536 35.3913 27.4683 35.5623C27.472 35.6039 27.5108 35.6308 27.5474 35.6331C27.5491 35.7208 27.5749 35.8095 27.6272 35.889C27.666 35.9483 27.7351 35.9411 27.7743 35.9042C27.8048 35.9242 27.8469 35.9283 27.8771 35.8984C27.9838 35.7924 28.1373 35.805 28.2941 35.8289C28.1542 35.8564 28.0222 35.9456 27.9639 36.0739C27.9145 36.1821 28.0546 36.2657 28.1232 36.1673C28.1906 36.0695 28.3115 36.068 28.4188 36.0724C28.5284 36.0767 28.6172 36.1558 28.7295 36.1234C28.7389 36.1206 28.7479 36.1151 28.7555 36.1081C28.7846 36.3663 28.7349 36.6544 28.5781 36.9671C28.5304 37.0618 28.6432 37.1496 28.7227 37.0788Z" fill="#171717"/>
<path d="M30.3583 42.1086C29.988 42.0577 29.6647 42.3323 29.3052 42.4179C29.1069 42.4654 28.8902 42.4547 28.6793 42.4061C29.093 42.4093 29.5336 42.2965 29.8336 42.1374C29.9059 42.0992 29.9151 41.9696 29.8336 41.934C29.5635 41.8169 29.2691 41.8676 28.9766 41.9037C28.9738 41.8687 28.9527 41.8374 28.9068 41.8293C28.7322 41.7998 28.5264 41.6704 28.3641 41.596C28.2574 41.5475 28.199 41.4573 28.1728 41.3539C28.2956 41.4648 28.4622 41.5767 28.6311 41.5868C28.71 41.5917 28.7799 41.5981 28.8588 41.5874C28.9151 41.5795 28.9608 41.533 29.0113 41.5096C29.0401 41.4966 29.0331 41.4473 29.0024 41.4416C28.9328 41.4285 28.8405 41.3328 28.7786 41.2929C28.6861 41.2338 28.5989 41.1566 28.5085 41.0927C28.4743 41.0686 28.4472 41.0445 28.4232 41.0202C28.4327 41.0165 28.4419 41.0137 28.4513 41.0105C28.465 41.0297 28.4811 41.0468 28.4997 41.062C28.6138 41.1562 28.7674 41.1728 28.9002 41.1208C28.9307 41.1554 28.9657 41.1869 29.0088 41.2102C29.0975 41.2586 29.1764 41.1242 29.0879 41.075C29.0254 41.0396 28.9908 40.9899 28.9702 40.9287C29.3672 40.9293 29.8038 41.0438 30.1134 41.2309C30.2128 41.2904 30.3212 41.1507 30.2371 41.0705C30.0987 40.9383 29.9537 40.8325 29.8023 40.7474C29.7927 40.686 29.7503 40.6181 29.6978 40.5953C29.1365 40.3561 28.3588 40.0654 27.8043 40.4629C27.7595 40.4951 27.7198 40.5328 27.6836 40.5729C27.4805 40.7781 27.3242 41.0737 27.2942 41.2579C27.2814 41.3368 27.2799 41.4307 27.2893 41.5303C27.276 41.6154 27.2745 41.7032 27.2903 41.7939C27.3944 42.3989 28.0054 42.7092 28.5453 42.8563C29.0953 43.006 30.2414 42.8938 30.4271 42.2293C30.4399 42.1831 30.4112 42.1159 30.3583 42.1086Z" fill="#171717"/>
<path d="M25.8212 19.8264C25.8975 19.8753 25.9841 19.9073 26.0745 19.9194C25.9805 19.9194 25.8845 19.9245 25.7909 19.9243C25.773 19.9011 25.7525 19.8804 25.7312 19.8612C25.7623 19.8525 25.7922 19.8414 25.8212 19.8264ZM25.9135 19.3057C25.915 19.3123 25.9169 19.3185 25.9192 19.3251C25.9186 19.3255 25.9178 19.3263 25.9175 19.3266C25.9156 19.3278 25.9146 19.3283 25.9127 19.3297C25.9052 19.3298 25.8975 19.3297 25.8902 19.33C25.8856 19.3274 25.8819 19.324 25.8777 19.3206C25.8902 19.3178 25.902 19.3125 25.9135 19.3057ZM26.4081 18.8024C26.4089 18.8026 26.4098 18.8026 26.4106 18.8028C26.4358 18.8092 26.4612 18.8167 26.4869 18.8235C26.4927 18.8378 26.497 18.8535 26.5015 18.8687C26.4823 18.8638 26.4624 18.8621 26.4445 18.8698C26.4253 18.8778 26.4113 18.8892 26.3959 18.8994C26.3982 18.867 26.4021 18.8346 26.4081 18.8024ZM27.1201 20.5549C27.196 20.488 27.0996 20.3839 27.0182 20.4229C26.9979 20.4329 26.976 20.4408 26.955 20.4502C27.0576 20.3431 27.1495 20.2276 27.2252 20.1179C27.6597 19.4923 27.3289 18.6991 27.2174 18.0449C27.2071 17.9845 27.111 17.9871 27.0988 18.0449C27.0553 18.2481 27.0566 18.2153 27.095 18.4204C27.1788 18.868 27.2745 19.2429 27.0826 19.6929C26.9384 20.032 26.6725 20.3163 26.3232 20.4425C26.1445 20.5069 26.0429 20.5059 25.9282 20.6146C25.5951 20.5893 25.2705 20.4897 25.0063 20.3099C25.0462 20.2924 25.079 20.2542 25.0852 20.2035C25.0892 20.1719 25.092 20.1408 25.0952 20.1099C25.1023 20.1162 25.1078 20.1233 25.1155 20.1292C25.4716 20.4076 26.0948 20.3504 26.4142 20.0439C26.443 20.0164 26.4262 19.9725 26.3923 19.9606C26.3261 19.9373 26.2543 19.9265 26.1799 19.922C26.2812 19.9185 26.3833 19.893 26.4782 19.838C26.7721 19.6673 26.8651 19.237 26.823 18.9269C26.8088 18.8228 26.7789 18.7316 26.7356 18.6522C26.793 18.6814 26.8553 18.6285 26.826 18.5631C26.7322 18.352 26.6079 18.228 26.4686 18.1692C26.5917 18.1566 26.7164 18.1811 26.8348 18.2605C26.8938 18.3001 26.9583 18.2121 26.9094 18.1637C26.696 17.9514 26.533 17.7715 26.1995 17.8438C25.8655 17.9163 25.5966 18.1314 25.3912 18.3976C25.3761 18.417 25.3637 18.4381 25.3494 18.458C25.3482 18.459 25.3469 18.4597 25.3458 18.4607C25.353 18.4483 25.359 18.436 25.3665 18.4234C25.5008 18.2023 25.7497 17.9461 25.9773 17.8226C26.1886 17.7081 26.3004 17.7256 26.4646 17.5625C26.4846 17.5426 26.4846 17.5089 26.4646 17.4889C26.0365 17.0634 25.2511 17.8922 25.0336 18.1666C24.6388 18.6648 24.5186 19.5496 24.7999 20.1421C24.7207 20.0629 24.6506 19.974 24.5926 19.8744C24.1978 19.1967 24.6365 18.3927 24.8385 17.7384C24.8592 17.6708 24.7721 17.6262 24.7239 17.6717C24.0503 18.3078 23.8558 19.5146 24.3832 20.2907C24.9558 21.1337 26.3908 21.1953 27.1201 20.5549Z" fill="#171717"/>
<path d="M26.8198 30.5312C26.8208 30.531 26.8217 30.5306 26.8225 30.5306C26.8232 30.5349 26.824 30.5387 26.8247 30.5428C26.823 30.5389 26.8217 30.5351 26.8198 30.5312ZM26.708 30.3271C26.6752 30.2751 26.6408 30.2254 26.6061 30.1785C26.6276 30.1734 26.6483 30.1664 26.6679 30.1567C26.7106 30.2079 26.7449 30.2632 26.7679 30.3231C26.7481 30.3235 26.7283 30.3252 26.708 30.3271ZM26.4583 31.3689C26.4722 31.3614 26.4866 31.3536 26.4994 31.3444C26.5717 31.3491 26.644 31.3282 26.6982 31.2815C26.7018 31.2908 26.7055 31.2994 26.7087 31.3081C26.6398 31.3979 26.5519 31.4075 26.4583 31.3689ZM26.2787 30.0092C26.277 30.0085 26.2755 30.0077 26.274 30.0071C26.3065 29.9733 26.3118 29.9181 26.2936 29.8738C26.3628 29.9094 26.4291 29.9507 26.4916 29.9953C26.4195 29.9951 26.3455 30.0045 26.2787 30.0092ZM26.5781 30.7754C26.5792 30.776 26.5805 30.776 26.5815 30.7765C26.5831 30.7814 26.5848 30.7867 26.5863 30.7921C26.5884 30.7995 26.5905 30.8097 26.5928 30.8181C26.5862 30.8193 26.5798 30.8204 26.5728 30.8213C26.5756 30.8063 26.5769 30.7908 26.5781 30.7754ZM25.5387 29.2739C25.2932 29.2521 24.8849 29.3673 24.8324 29.6562C24.7786 29.9505 24.9386 30.2591 25.2077 30.3926C25.2928 30.4348 25.396 30.3214 25.3148 30.2538C25.1544 30.1207 25.0399 29.7742 25.2977 29.6699C25.4873 29.5931 25.7164 29.6613 25.9015 29.7177C25.9102 29.7204 25.9202 29.724 25.9294 29.727C25.824 29.7236 25.7178 29.7358 25.6372 29.7531C25.549 29.7718 25.463 29.8443 25.4172 29.9187C25.3877 29.9669 25.4069 30.0734 25.4754 30.0785C25.5212 30.0815 25.5517 30.0586 25.5937 30.0538C25.6618 30.0459 25.7415 30.0586 25.8096 30.0651C25.8215 30.0661 25.8334 30.0676 25.8452 30.0691C25.7838 30.1288 25.8112 30.2482 25.9222 30.2629C26.0885 30.2847 26.2124 30.3468 26.3161 30.4592L26.3156 30.4698C26.2958 30.4839 26.2808 30.5063 26.2783 30.5396C26.2738 30.6057 26.2711 30.6709 26.2666 30.736C26.2373 30.7055 26.212 30.669 26.1975 30.6216C26.1623 30.5058 25.961 30.5221 25.9778 30.6513C25.9917 30.7588 26.0313 30.8543 26.0917 30.9347C26.0578 30.9827 26.0819 31.0471 26.1352 31.0789C26.1326 31.0823 26.1299 31.0855 26.1273 31.0887C25.9795 30.9117 25.8575 30.7063 25.8217 30.6174C25.7793 30.5114 25.6052 30.4813 25.5758 30.6174C25.4434 31.2275 26.241 31.9667 26.8379 31.6796C27.3196 31.4474 27.2369 30.6008 27.1113 30.1969C26.9339 29.6266 26.0708 29.3214 25.5387 29.2739Z" fill="#171717"/>
<path d="M43.8512 33.8568C43.8101 34.1441 43.5966 34.4432 43.512 34.7258C43.3046 35.4193 43.4036 36.3108 42.5024 36.4044C42.3825 36.417 42.2704 36.4488 42.165 36.4941C42.7898 35.3204 43.2776 34.0839 43.6245 32.807C43.751 33.1571 43.9154 33.4088 43.8512 33.8568ZM33.9797 43.7301L33.9808 43.7323C33.8733 43.7747 33.7666 43.8161 33.6619 43.8517C33.3855 43.9449 32.9155 43.8765 32.8221 44.2336C32.8136 44.267 32.8432 44.2927 32.8754 44.2865C33.1996 44.2239 33.5419 44.1951 33.8583 44.1013C33.9025 44.0881 33.9466 44.074 33.991 44.0603C33.8526 44.2792 33.7353 44.5092 33.6018 44.7319C33.3278 45.1895 32.714 45.2212 32.2758 45.409C31.6831 45.6626 31.0211 46.316 30.4398 45.7483C30.3142 45.6255 30.1841 45.5399 30.0489 45.4777C30.3266 45.3797 30.5919 45.2534 30.8452 45.0962C30.9019 45.0608 30.8755 44.98 30.8122 44.9755C30.4093 44.9458 29.9817 45.1073 29.5925 45.2016C29.5155 45.2206 29.4358 45.2332 29.3552 45.2432L29.3513 45.2215C28.3789 45.3887 27.3817 45.4736 26.3872 45.4736C19.6779 45.4736 13.517 41.5176 10.6771 35.5108C10.705 35.2111 10.5043 34.9349 10.3794 34.6648C10.2126 34.3035 9.95258 33.9421 9.85862 33.5536C9.84243 33.4866 9.74979 33.4935 9.7302 33.5536C9.62495 33.8751 9.79441 34.1447 9.9281 34.4351C9.77276 34.357 9.60028 34.305 9.40672 34.2527C8.6993 34.0601 8.74016 32.3228 8.60026 31.7108C8.3969 30.8197 7.65258 30.248 8.434 29.3582C8.5144 29.2665 8.57823 29.1801 8.63283 29.0948C8.66315 29.2951 8.70664 29.4935 8.74958 29.6833C8.84184 30.0889 8.87102 30.5306 9.10036 30.8892C9.15497 30.9746 9.27021 30.9006 9.23255 30.812C9.07344 30.4381 9.15422 29.9861 9.087 29.5903C9.04049 29.3179 9.03635 29.0383 9.01714 28.762L9.03747 28.7612C9.02975 28.5498 9.0258 28.333 9.0258 28.1167C9.0258 22.8332 11.4427 17.8472 15.5421 14.5634C15.5663 14.5683 15.5918 14.5681 15.6164 14.5616C15.7848 14.5154 15.8591 14.4264 15.9904 14.3123C16.1877 14.1405 16.4231 14.0153 16.6475 13.8835C16.8241 13.78 16.9996 13.6648 17.148 13.523C17.3035 13.3743 17.4231 13.1145 17.643 13.0475C17.7116 13.0266 17.7131 12.9278 17.643 12.9075C17.2309 12.7881 16.8671 13.2747 16.5357 13.449C16.5306 13.4517 16.5251 13.4543 16.5201 13.4569C16.6174 13.2508 16.6464 13.034 16.6607 12.7721C16.7027 12.0014 18.3685 11.6767 18.998 11.387C19.8165 11.0101 20.2597 10.1849 21.2654 10.7517C21.5369 10.9047 21.7606 10.9727 21.9939 10.9759L21.9992 10.9968C21.8376 11.0455 21.6913 11.0941 21.5825 11.1255C21.3134 11.2033 20.8851 11.3115 20.8425 11.6381C20.837 11.678 20.8853 11.6906 20.9133 11.6788C21.2129 11.5517 21.5484 11.4454 21.8696 11.3898C22.1278 11.3456 22.3844 11.2916 22.6416 11.2428C22.8919 11.1956 23.0642 11.2317 23.2532 11.0713C23.2643 11.0621 23.2705 11.0512 23.2745 11.0399C24.2973 10.8548 25.3395 10.76 26.3872 10.76C30.3916 10.76 34.2991 12.1554 37.3895 14.6896L37.3961 14.6815C37.4584 14.7383 37.5219 14.7937 37.5821 14.8537C37.9101 15.1796 38.1489 15.5568 38.5309 15.8279C38.5756 15.8591 38.6302 15.7985 38.6036 15.7552C38.4861 15.5634 38.4082 15.3561 38.3069 15.1564C38.2009 14.948 38.0158 14.7684 37.8593 14.5968C38.1513 14.6446 38.42 14.5766 38.7575 14.5316C39.3756 14.4496 40.1796 16.2004 40.6282 16.5814C41.2026 17.0699 41.923 17.5146 41.7201 18.3794C41.6125 18.8368 41.5932 19.134 41.7364 19.4757C41.5254 19.156 41.3073 18.8564 41.0431 18.571C41.0256 18.552 40.9997 18.5763 41.0094 18.5973C41.1959 18.9985 41.3621 19.4051 41.5647 19.7995C41.7056 20.0734 41.8466 20.3943 42.0564 20.636C43.1654 22.959 43.7485 25.5219 43.7485 28.1167C43.7485 34.8135 40.0053 40.7961 33.9797 43.7301ZM16.9883 44.126C16.4581 43.8197 16.1035 43.5897 15.7996 43.0353C15.6573 42.7753 15.5534 42.4961 15.4357 42.2243C15.6742 42.4095 15.9162 42.591 16.1649 42.7648C17.0215 43.3634 17.9223 43.8786 18.8558 44.3136C18.1307 44.7018 17.6978 44.5358 16.9883 44.126ZM10.3649 19.0753C10.7133 18.5845 10.9648 18.1454 11.5034 17.837C11.6589 17.748 11.8159 17.6614 11.9724 17.5733C11.1676 18.6738 10.493 19.8623 9.95898 21.1134C9.9313 21.0617 9.90174 21.0091 9.86973 20.9534C9.46697 20.2501 9.97066 19.6308 10.3649 19.0753ZM25.9129 9.98119C26.1812 9.86843 26.5977 9.99549 26.8873 9.98175C27.478 9.9537 28.1954 9.65063 28.5292 10.3695C28.5326 10.3774 28.5377 10.3837 28.5416 10.3912C27.8289 10.3044 27.1098 10.2575 26.3872 10.2575C26.0705 10.2575 25.7543 10.2677 25.4391 10.2843C25.5502 10.1819 25.6639 10.0857 25.9129 9.98119ZM44.1539 32.9702C43.9926 32.5354 43.8954 32.1854 43.8768 31.7555C44.1232 30.5661 44.2507 29.3476 44.2507 28.1167C44.2507 25.0844 43.4768 22.0944 42.014 19.4601C42.0065 19.132 41.994 18.818 42.1068 18.4859C42.1786 18.2751 42.252 17.9918 42.1846 17.767C42.0055 17.1695 41.5514 16.7855 41.0817 16.4011C40.3864 15.8318 40.0249 14.9864 39.4251 14.3308C38.9913 13.8564 38.2212 14.2803 37.7004 14.1305C37.6366 14.112 37.5799 14.1307 37.5351 14.1657C35.1072 12.2251 32.2077 10.9584 29.1539 10.4782C28.8075 10.2967 28.8854 10.0623 28.6582 9.8065C28.3477 9.45692 27.9331 9.49853 27.4943 9.53957C27.0313 9.58286 26.4964 9.5102 26.0514 9.58738C25.5061 9.68207 25.1316 10.0586 24.6844 10.3381C23.9051 10.4119 23.1331 10.5376 22.3735 10.7118C22.0596 10.6436 21.7659 10.6075 21.4635 10.4128C21.217 10.2545 21.0172 10.1431 20.7254 10.0924C20.0841 9.981 19.4117 10.564 18.9406 10.9057C18.2704 11.3921 17.2572 11.371 16.631 11.8964C16.1109 12.3326 16.3485 12.9498 16.023 13.4897C16.003 13.523 15.9955 13.5573 15.9964 13.5904C14.6145 14.58 13.3976 15.7488 12.3686 17.0535C11.9515 17.1772 11.5267 17.4413 11.155 17.6412C10.6382 17.9191 10.3696 18.4279 10.0522 18.8925C9.78123 19.2886 9.35305 19.7616 9.32782 20.271C9.30297 20.7832 9.60311 21.1586 9.75205 21.6192C8.95199 23.6641 8.52325 25.864 8.52325 28.1167C8.52325 28.2409 8.52758 28.3635 8.53003 28.4872C8.43908 28.695 8.34041 28.8947 8.15664 29.0807C8.00921 29.23 7.82562 29.3909 7.7456 29.5916C7.4833 30.2499 7.77384 30.889 8.04385 31.5C8.42985 32.374 8.25756 33.4107 8.6767 34.2553C8.88213 34.6691 9.47526 34.6989 9.86672 34.9159C11.0215 37.72 12.8555 40.1638 15.2225 42.0573C15.3694 42.4201 15.501 42.9805 15.5825 43.162C15.8108 43.6693 16.1316 44.0275 16.6087 44.305C17.125 44.6052 17.5662 44.9194 18.1659 45.0175C18.6491 45.0967 18.9364 44.657 19.3561 44.5375C21.5607 45.4828 23.9411 45.9758 26.3872 45.9758C27.3309 45.9758 28.2758 45.8983 29.202 45.7516C29.281 45.7835 29.3567 45.7827 29.5524 45.7902C29.9806 45.8066 30.2455 46.2347 30.5995 46.409C31.0039 46.6078 31.5859 46.248 31.9341 46.0713C32.4472 45.8102 33.2049 45.7106 33.6278 45.3238C34.0778 44.9126 34.2996 44.3812 34.6877 43.9336C34.8122 43.8683 34.9351 43.7997 35.0581 43.7318C35.0792 43.7256 35.0997 43.7194 35.121 43.7133C35.1597 43.7028 35.1869 43.6798 35.2036 43.6512C37.7339 42.214 39.8816 40.1787 41.4565 37.7113C41.5161 37.618 41.5721 37.5231 41.6299 37.429C41.7622 37.4062 41.8099 37.368 41.9562 37.2193C42.3089 36.8616 42.7583 36.8759 43.1859 36.6978C43.5697 36.5376 43.6789 35.9424 43.7634 35.5936C43.9125 34.9758 44.2078 34.3664 44.2942 33.7458C44.3321 33.4764 44.2462 33.2183 44.1539 32.9702Z" fill="#171717"/>
<path d="M14.442 37.78C14.4426 37.7804 14.4431 37.7805 14.4437 37.7809C14.4456 37.7828 14.4474 37.7847 14.4493 37.7866C14.4467 37.7845 14.4444 37.7822 14.442 37.78ZM13.9852 38.9066C13.9844 38.9055 13.9846 38.9046 13.9837 38.9036C13.9524 38.8699 13.918 38.8407 13.8841 38.8108C13.738 38.6519 13.6156 38.469 13.5064 38.2807C13.6261 38.4577 13.7555 38.6271 13.8852 38.7873C13.9349 38.8485 14.0038 38.9138 14.0842 38.9761C14.0505 38.9537 14.0178 38.9305 13.9852 38.9066ZM15.4221 39.1969C15.7233 38.1017 14.2927 36.6498 13.506 36.121C13.4542 36.0861 13.3776 36.1575 13.4173 36.2096C13.7031 36.582 13.9918 36.9393 14.2575 37.3192C14.2567 37.3178 14.2558 37.3173 14.255 37.316C14.2383 37.2917 14.2142 37.2841 14.1919 37.2872C14.0236 37.1407 13.8216 36.9989 13.7555 36.7744C13.7327 36.6974 13.6267 36.7311 13.638 36.8069C13.6613 36.9628 13.7436 37.097 13.8406 37.2192C13.7967 37.2318 13.7649 37.2757 13.7909 37.3288C13.6815 37.161 13.58 36.9877 13.4751 36.8128C13.442 36.7576 13.3478 36.7785 13.3508 36.8465C13.367 37.225 13.5935 37.6075 13.8408 37.9306C13.8074 37.8937 13.7743 37.8562 13.7417 37.8184C13.5131 37.5513 13.4344 37.2066 13.2401 36.9285C13.1533 36.7047 13.0626 36.483 12.9424 36.2727C12.9275 36.2471 12.8803 36.2565 12.8837 36.2883C12.9272 36.6942 12.9985 37.0614 13.1215 37.411C13.0959 37.4208 13.075 37.4455 13.0853 37.475C13.1008 37.5193 13.1187 37.5629 13.1364 37.6064C12.8882 37.1247 12.686 36.6447 12.5498 36.0986C12.5248 35.9984 12.3954 36.0333 12.3839 36.121C12.3617 36.2927 12.3706 36.4636 12.3998 36.6332C12.2953 36.3589 12.213 36.0752 12.161 35.7633C12.1439 35.6598 12.0002 35.6967 11.9914 35.7861C11.9827 35.8732 11.9812 35.9585 11.9842 36.0429C11.874 35.5801 12.2184 35.2968 12.6621 35.5577C12.7197 35.5916 12.7826 35.5116 12.7336 35.4653C12.4956 35.2404 12.4344 34.897 12.0322 35.0073C11.7114 35.0956 11.604 35.394 11.5824 35.6893C11.4811 35.1937 11.586 34.6779 12.2452 34.6073C12.2926 34.602 12.3137 34.5439 12.2698 34.5158C11.4033 33.9644 11.1037 35.2844 11.1975 35.896C11.2807 36.4402 11.7153 36.9229 12.0672 37.3156C12.196 37.459 12.3284 37.6241 12.4659 37.7903C12.6895 38.0996 12.9166 38.3797 13.0951 38.6011C13.4661 39.0627 15.0871 40.4137 15.4221 39.1969Z" fill="#171717"/>
<path d="M15.5288 36.9082C15.8583 37.4431 16.1827 38.2518 16.2247 38.879C16.232 38.9923 16.2303 39.109 16.2175 39.2244C16.1008 38.7054 15.7886 38.2158 15.5399 37.7653C15.1354 37.0336 14.6588 36.3776 13.9906 35.8723C13.9616 35.8505 13.936 35.8945 13.9548 35.9183C14.5696 36.695 15.122 37.4965 15.5788 38.376C15.7536 38.712 16.3685 39.7076 15.711 39.9736C15.1904 40.1846 14.6737 39.9367 14.2476 39.6655C14.1606 39.6103 14.0761 39.7157 14.116 39.7971C14.2502 40.0708 14.6159 40.2613 15.0083 40.3294C15.0121 40.3445 15.0181 40.3586 15.0298 40.3693C15.6798 40.9685 16.5067 39.965 16.5696 39.3549C16.6619 38.4599 16.0663 37.55 15.5472 36.8939C15.5387 36.8832 15.5218 36.897 15.5288 36.9082Z" fill="#171717"/>
<path d="M33.3706 14.3414C33.882 14.6544 34.3612 14.9274 34.7792 15.372C35.1567 15.7736 35.1482 16.5162 34.5041 16.5689C34.1452 16.5985 33.7366 16.4556 33.399 16.3513C32.7475 16.1504 32.1683 15.7231 31.6279 15.3226C31.4035 15.1562 31.2014 14.9786 31.0094 14.7758C30.6767 14.4723 30.7247 14.1848 31.1531 13.9136C31.138 13.9353 31.1282 13.9609 31.1263 13.9886C31.0913 14.5964 31.4357 15.0498 31.9258 15.3678C32.5344 15.7627 33.3581 16.1443 34.0895 15.9626C34.1661 15.9436 34.2136 15.8717 34.2164 15.7962C34.2328 15.3543 33.7714 14.9893 33.3704 14.7745C33.2892 14.7088 33.216 14.6342 33.1591 14.5393C33.0904 14.4248 32.9283 14.5237 32.9812 14.6408C32.9181 14.6402 32.8571 14.7165 32.9004 14.7754C33.0307 14.9534 33.2098 15.0984 33.383 15.2326C33.4203 15.2612 33.4598 15.2974 33.5014 15.335C33.4608 15.3132 33.4225 15.2917 33.3913 15.2695C33.1697 15.1132 32.9576 14.9481 32.7547 14.7675C32.6795 14.7005 32.5765 14.8031 32.6443 14.8782C32.7018 14.9417 32.7622 15.0027 32.8213 15.0645C32.6308 14.9199 32.4543 14.7576 32.2868 14.5868C32.2363 14.535 32.1713 14.5807 32.1685 14.6363C32.0358 14.487 31.9196 14.3235 31.8275 14.1418C31.7927 14.0729 31.7002 14.1245 31.7112 14.1908C31.7552 14.4538 31.8996 14.695 32.0774 14.9059C31.9051 14.7451 31.7479 14.5425 31.7185 14.313C31.7072 14.2249 31.5767 14.1898 31.5519 14.2904C31.5287 14.3851 31.5377 14.4783 31.5641 14.5685C31.5304 14.5088 31.4989 14.4474 31.4739 14.3812C31.4453 14.2902 31.4265 14.197 31.4169 14.1021C31.4153 14.0921 31.1097 14.0226 31.5767 14.119C31.6179 14.1275 31.649 14.0675 31.607 14.0477C31.4588 13.9776 31.4342 13.9334 31.3319 13.8707C31.3075 13.8556 31.282 13.8504 31.2577 13.8515C31.337 13.808 31.4253 13.7647 31.5246 13.7217C31.7872 13.7451 32.0478 13.7846 32.306 13.84C32.4142 13.8647 32.4596 13.7025 32.3517 13.6737C31.6965 13.4981 31.3449 13.2907 30.704 13.6261C30.3681 13.8016 30.3351 14.1812 30.4336 14.4981C30.7192 15.4164 32.2576 16.3017 33.0554 16.6169C33.7319 16.8843 35.3612 17.3417 35.5333 16.1993C35.6704 15.2919 34.2151 14.2542 33.4787 14.0853C33.3241 14.0498 33.2329 14.2571 33.3706 14.3414Z" fill="#171717"/>
<path d="M30.1089 12.7282C30.0981 12.7282 30.0981 12.7448 30.1089 12.7448C30.1198 12.7448 30.1198 12.7282 30.1089 12.7282Z" fill="#171717"/>
<path d="M29.7204 14.4439C30.0796 15.1616 30.9172 15.9378 31.7097 16.1342C31.7573 16.1458 31.8149 16.0893 31.7799 16.0432C31.4903 15.6636 31.0228 15.4441 30.6579 15.1445C30.4142 14.9441 30.2107 14.7105 30.0425 14.4437C29.7416 13.9667 29.8557 13.2211 30.5214 13.1766C30.6089 13.1708 30.6102 13.0424 30.5214 13.0397C29.7695 13.0168 29.4031 13.8101 29.7204 14.4439Z" fill="#171717"/>
<path d="M12.6091 22.643C12.6153 22.8392 12.6908 23.0347 12.7852 23.2141C12.7752 23.1983 12.7646 23.1819 12.755 23.1669C12.6131 22.9413 12.5652 22.7016 12.5713 22.4596C12.5812 22.5195 12.5937 22.5807 12.6091 22.643ZM13.4984 22.9897C13.5052 23.0315 13.5139 23.0752 13.524 23.1196C13.4969 23.0539 13.4721 22.9867 13.4497 22.9183C13.4651 22.943 13.4819 22.9663 13.4984 22.9897ZM13.8389 23.6077C13.8247 23.6127 13.8108 23.618 13.7969 23.6227C13.7827 23.6028 13.7705 23.5822 13.7573 23.5619C13.782 23.5809 13.8095 23.5956 13.8389 23.6077ZM13.949 22.8904C13.9498 22.8927 13.9501 22.8948 13.9507 22.897C13.9501 22.8957 13.9496 22.8946 13.949 22.8935V22.8904ZM14.2218 23.2798C14.2164 23.2881 14.2115 23.2972 14.2057 23.3054C14.1876 23.2791 14.1693 23.2531 14.1509 23.2271C14.1733 23.2473 14.197 23.2646 14.2218 23.2798ZM13.2949 24.2307C13.5813 24.2797 13.9556 24.2081 14.1475 23.982C14.2154 23.9296 14.2732 23.8737 14.3132 23.8231C14.4186 23.6884 14.4843 23.5406 14.535 23.3785C14.541 23.3584 14.5436 23.3395 14.5482 23.3198C14.8182 22.8618 14.9618 22.286 14.8701 21.8179C14.843 21.679 14.6585 21.7308 14.6438 21.8486C14.6421 21.861 14.6412 21.8731 14.6393 21.8855C14.5967 21.8801 14.5523 21.8993 14.5357 21.9447C14.4984 21.9271 14.4525 21.935 14.426 21.9678C14.3998 21.9537 14.3695 21.9497 14.3403 21.9558C14.3088 21.8385 14.1226 21.8432 14.122 21.9799C14.1217 22.0516 14.1337 22.1228 14.1509 22.1926C14.1429 22.2064 14.1371 22.222 14.1375 22.2422C14.1377 22.2503 14.1394 22.2587 14.1397 22.2668C14.1126 22.2544 14.0836 22.2514 14.0569 22.2585C14.0558 22.2239 14.0545 22.1891 14.0533 22.1548C14.0507 22.0497 13.8931 22.0497 13.8906 22.1548C13.8863 22.3135 13.8839 22.4736 13.8997 22.6312C13.882 22.6214 13.8624 22.615 13.8419 22.6148C13.7692 22.37 13.7496 22.1034 13.8901 21.9029C13.9599 21.8031 13.7999 21.6797 13.721 21.7726C13.7195 21.7741 13.7187 21.7761 13.7174 21.7778C13.6728 21.7526 13.6041 21.7622 13.58 21.8249C13.5067 22.0155 13.4736 22.2188 13.4655 22.4237C13.4591 22.4094 13.4517 22.3966 13.4419 22.387C13.4336 22.231 13.4161 22.0706 13.4144 21.916C13.4248 21.9125 13.4352 21.9087 13.4474 21.9079C13.5585 21.9019 13.5933 21.7306 13.4745 21.7055C13.4704 21.7046 13.4668 21.705 13.4626 21.7042C13.5103 21.5771 13.5698 21.4493 13.646 21.3197C13.6986 21.231 13.5685 21.1598 13.5107 21.2406C13.5075 21.245 13.5048 21.2499 13.5018 21.2542C13.4979 21.2538 13.4948 21.251 13.4909 21.2515C13.3242 21.2709 13.2851 21.4918 13.2704 21.6669C13.2585 21.6933 13.2467 21.7196 13.2356 21.7468C13.1889 21.7816 13.1544 21.8326 13.1297 21.8934C13.1339 21.8432 13.1384 21.7931 13.1435 21.7447C13.168 21.7157 13.1968 21.6886 13.2299 21.6632C13.3045 21.6067 13.2602 21.4933 13.1851 21.4956C13.206 21.418 13.2337 21.3672 13.2721 21.3662C13.3866 21.3638 13.379 21.2079 13.2721 21.1941C13.235 21.1892 13.2017 21.193 13.1706 21.2005C13.2467 21.0593 13.3291 20.9448 13.4035 20.9352C13.4766 20.9256 13.5058 20.8563 13.4864 20.8053C13.6958 20.7083 13.9339 20.6556 14.1906 20.6441C14.2104 20.6434 14.2179 20.6178 14.2008 20.607C13.5892 20.228 12.9714 20.6695 12.6048 21.1802C12.5204 21.2979 12.4525 21.4244 12.3988 21.556C12.067 22.0339 12.2112 22.9426 12.3997 23.3813C12.5758 23.7909 12.8401 24.1526 13.2949 24.2307Z" fill="#171717"/>
<path d="M38.5957 19.6943C38.6838 19.752 38.7669 19.6576 38.7541 19.5725C38.7019 19.2255 38.4607 19.0218 38.6388 18.6318C38.8205 18.2338 39.234 18.252 39.5643 18.4143C39.9597 18.6088 40.2344 19.0479 40.6159 19.285C40.7136 19.3454 40.7886 19.2014 40.7035 19.1359C40.3555 18.8685 40.212 18.4232 39.8418 18.1758C39.5289 17.9664 39.2176 17.8672 38.8514 17.9884C38.1395 18.2242 37.9634 19.2814 38.5957 19.6943Z" fill="#171717"/>
<path d="M40.4712 19.7646C40.4278 19.736 40.3659 19.7734 40.3678 19.8239C40.3721 19.9583 40.4634 20.2349 40.5333 20.5164C40.5227 20.5181 40.513 20.5204 40.5047 20.5247C40.4817 20.468 40.4587 20.4134 40.445 20.3645C40.4309 20.3136 40.3699 20.3061 40.3363 20.333C40.2991 20.2807 40.2614 20.2285 40.2235 20.1762C40.1976 20.1404 40.1595 20.1333 40.1294 20.1459C40.0797 20.1274 40.0145 20.1653 40.0277 20.2351C40.0577 20.3929 40.1064 20.5515 40.1738 20.7004C40.055 20.5366 39.9517 20.3615 39.8733 20.185C39.8456 20.1223 39.7494 20.1677 39.7658 20.2302C39.7914 20.3291 39.8202 20.4278 39.8536 20.5251C39.7362 20.3709 39.638 20.199 39.5747 20.0233C39.541 19.9299 39.3979 19.941 39.3971 20.0472C39.3969 20.0779 39.3988 20.1101 39.4022 20.1432C39.3615 20.0557 39.3299 19.9636 39.3075 19.8678C39.2971 19.8216 39.2343 19.828 39.2205 19.8678C39.2151 19.8842 39.2122 19.9007 39.2079 19.9173C39.1518 19.6591 39.1264 19.3918 39.074 19.1295C39.0565 19.0425 38.9115 19.0398 38.8963 19.1295C38.7906 19.7456 38.9925 20.4219 39.338 20.9326C39.5623 21.264 40.113 21.7889 40.5657 21.6899C41.3335 21.5219 40.9221 20.0645 40.4712 19.7646Z" fill="#171717"/>
<path d="M40.5331 22.5231C39.9316 22.3847 39.4922 22.2329 39.0529 21.7712C38.6682 21.3672 38.3922 20.8467 38.1257 20.362C38.1075 20.3291 38.0495 20.3425 38.0525 20.3818C38.1263 21.3331 39.402 23.1456 40.5331 22.8183C40.6737 22.7777 40.6846 22.5579 40.5331 22.5231Z" fill="#171717"/>
<path d="M43.233 28.4857C43.2053 28.4283 43.1242 28.3805 43.0604 28.3867C42.9685 28.3957 42.8826 28.407 42.7913 28.4219C42.7131 28.4347 42.6721 28.5164 42.6661 28.5866C42.6442 28.7054 42.6224 28.824 42.6005 28.943C42.5623 29.0826 42.7676 29.1747 42.8372 29.0425C42.8888 28.9441 42.9154 28.894 42.9365 28.8424C43.1274 29.0872 43.0347 29.7481 42.9954 30.0039C42.9304 30.4252 42.4629 30.7578 42.3861 30.1617C42.3213 29.6585 42.146 29.2161 42.359 28.7171C42.844 27.5819 42.6071 26.5061 42.0842 25.3885C42.0669 25.352 42.0172 25.3797 42.023 25.4143C42.1343 26.0427 42.2659 26.6706 42.3121 27.3079C42.3582 27.9409 42.0359 28.3795 41.8624 28.9529C41.7318 29.3859 41.9722 30.0056 42.0253 30.4286C42.0537 30.6549 42.0564 30.8905 42.2799 31.021C42.6915 31.2623 43.1585 30.787 43.2831 30.4388C43.5043 29.8196 43.522 29.0858 43.233 28.4857Z" fill="#171717"/>
<path d="M24.2476 44.3162C24.2367 44.3162 24.2367 44.3329 24.2476 44.3329C24.2584 44.3329 24.2584 44.3162 24.2476 44.3162Z" fill="#171717"/>
<path d="M21.1535 31.1169C21.1543 31.1122 21.1545 31.1071 21.1554 31.1022C21.1577 31.1143 21.1605 31.1263 21.163 31.1382C21.1599 31.131 21.1567 31.124 21.1535 31.1169ZM21.9368 31.6951C21.9655 31.6603 21.9882 31.6183 22.0163 31.578C22.0581 31.5172 21.9798 31.462 21.925 31.4867C21.8734 31.5099 21.7504 31.4788 21.6949 31.4268C21.6134 31.3513 21.5813 31.2419 21.5482 31.1401C21.5168 31.0438 21.5002 30.9326 21.5217 30.8471C21.5243 30.8365 21.5689 30.7834 21.539 30.8053C21.5633 30.7876 21.6215 30.7761 21.6617 30.7546C21.7049 30.7316 21.7222 30.688 21.7209 30.6441C21.8773 30.6298 22.0381 30.6437 22.1609 30.6712C22.2605 30.6934 22.2978 30.5531 22.2029 30.5198C21.9916 30.4456 21.8197 30.3204 21.5904 30.305C21.3552 30.2892 21.1526 30.4228 20.9848 30.5705C20.9071 30.6386 20.8536 30.7309 20.8154 30.8324C20.6949 30.9761 20.6905 31.1512 20.7463 31.324C20.7489 31.3846 20.7534 31.4432 20.7619 31.4969C20.8131 31.8241 20.9607 32.1344 21.2422 32.3216C21.4509 32.4602 21.8491 32.456 21.9943 32.2316C22.1229 32.1936 22.2381 32.1037 22.2754 31.9812C22.4449 31.9089 22.5897 31.7799 22.6895 31.5801C22.7241 31.5104 22.6364 31.4342 22.5785 31.4946C22.4275 31.6522 22.1696 31.7057 21.9368 31.6951Z" fill="#171717"/>
<path d="M29.5649 25.5104C29.2749 25.4433 29.0345 25.2724 28.859 25.0443C29.0631 25.2464 29.3282 25.3996 29.6065 25.5196C29.5926 25.5166 29.5781 25.5134 29.5649 25.5104ZM32.0219 25.0705C32.014 25.0082 31.9519 24.9784 31.9016 25.0204C31.6653 25.2166 31.5888 25.4582 31.2723 25.5721C30.9597 25.6845 30.6011 25.6832 30.2514 25.6392C30.2525 25.6335 30.2533 25.6277 30.2531 25.622C30.7063 25.6501 31.1573 25.5362 31.3375 25.159C31.3704 25.0897 31.2934 25.0359 31.2356 25.0805C31.0874 25.195 30.7888 25.229 30.5063 25.2228C30.592 25.2036 30.6779 25.1786 30.7635 25.14C30.8349 25.1076 30.8005 25.0155 30.7445 24.9927C30.4868 24.8879 30.1964 24.9351 29.9375 24.8265C29.7238 24.7365 29.251 24.5294 29.306 24.2328C29.3258 24.1287 29.6195 24.0185 29.585 23.8856C29.6609 23.8747 29.7317 23.8645 29.7925 23.8528C29.8605 23.8394 29.8558 23.7364 29.7925 23.7203C29.2307 23.5777 28.6407 23.5741 28.348 24.1586C28.2612 24.3318 28.2581 24.5154 28.3037 24.6945C28.1361 24.3382 28.2685 23.8948 28.3208 23.5376C28.3316 23.4636 28.2711 23.3602 28.1806 23.3975C27.4214 23.711 27.7846 24.9103 28.2244 25.3545C29.02 26.1577 30.4435 26.2645 31.4723 26.0487C31.5344 26.0357 31.5512 25.9576 31.5212 25.9112C31.8632 25.7689 32.078 25.5049 32.0219 25.0705Z" fill="#171717"/>
<path d="M28.6175 25.8259C28.4825 25.7512 28.3718 25.6414 28.2661 25.5311C28.1793 25.4409 28.1347 25.3546 28.0132 25.3125C27.9613 25.2946 27.9114 25.3326 27.895 25.3795C27.7926 25.6725 28.1597 25.9647 28.3701 26.1054C28.6433 26.288 28.9781 26.3797 29.2927 26.2624C29.3479 26.2417 29.3804 26.1487 29.3113 26.1189C29.082 26.0204 28.8357 25.9468 28.6175 25.8259Z" fill="#171717"/>
<path d="M38.5876 37.9561C38.138 38.449 37.8783 39.0497 37.4547 39.5583C36.954 40.1594 35.9112 40.5419 35.1889 40.5313C34.6796 40.5234 34.1046 40.8899 33.7071 41.1638C33.3736 41.3942 32.7549 42.2961 32.3084 41.7914C32.2894 41.77 32.2555 41.7879 32.2548 41.8137C32.2459 42.1167 32.4753 42.2675 32.7863 42.1841C33.4777 41.9993 33.9206 41.3765 34.5806 41.0782C35.1245 40.8321 35.4397 41.071 35.9299 40.9103C36.321 40.7821 36.6224 40.5283 36.9866 40.3436C37.9472 39.8565 38.2583 38.9706 38.7264 38.0631C38.7708 37.9768 38.658 37.879 38.5876 37.9561Z" fill="#171717"/>
<path d="M36.4899 38.9283C36.2875 39.0944 36.0322 39.2008 35.7835 39.2714C35.5937 39.3254 35.3037 39.3563 35.225 39.5602C35.2088 39.602 35.2425 39.6444 35.2796 39.657C35.3956 39.6966 35.4831 39.6444 35.5959 39.609C35.7445 39.5627 35.8966 39.5286 36.045 39.4815C36.3201 39.3934 36.4915 39.2588 36.5818 38.9818C36.6005 38.9247 36.5291 38.8965 36.4899 38.9283Z" fill="#171717"/>
<path d="M11.0977 29.6124C11.0459 29.5994 10.9992 29.6286 10.9825 29.6779C10.8578 30.0431 10.624 30.5687 10.9463 30.89C11.0305 30.9736 11.1516 30.868 11.1035 30.7686C11.0781 30.6389 11.0531 30.5094 11.0277 30.3799C11.0005 30.0775 11.1094 30.0932 11.3545 30.4264C11.3758 30.6058 11.3583 30.7914 11.3688 30.9721C11.3803 31.1671 11.3918 31.361 11.3914 31.5562C11.3901 32.1221 10.7689 31.3824 10.6784 31.2302C10.3329 30.65 10.5727 30.1764 10.4901 29.5676C10.4485 29.2613 10.3826 29.0525 10.2427 28.7847C9.94196 28.2088 10.0907 27.6754 10.2252 27.0924C10.2389 27.0325 10.1544 27.0103 10.1344 27.0671C10.0043 27.4361 9.73277 27.979 9.85912 28.3901C9.98527 28.8005 10.2186 29.1582 10.2769 29.5964C10.3121 29.8592 10.1393 30.185 10.1858 30.4576C10.2867 31.0508 10.5825 32.0121 11.257 32.1975C12.0006 32.402 11.8848 29.8082 11.0977 29.6124Z" fill="#171717"/>
<path d="M21.1463 17.6822C21.2381 17.6557 21.2342 17.5288 21.1463 17.5005C20.4475 17.2752 19.6919 17.7455 19.2074 18.2174C18.9653 18.4533 18.7276 18.7589 18.5979 19.0717C18.4478 19.4334 18.3015 20.083 17.8276 20.1299C17.7965 20.1329 17.785 20.1799 17.8197 20.1877C18.3465 20.3046 18.5868 19.8391 18.7672 19.4132C18.9511 18.9786 19.217 18.6337 19.5616 18.31C20.0363 17.8643 20.5609 17.8511 21.1463 17.6822Z" fill="#171717"/>
<path d="M24.7499 12.0786C25.4496 12.0012 26.0631 11.7935 26.7872 11.8472C26.8185 11.8494 26.8479 11.8517 26.8789 11.8541C26.6936 11.9191 26.5214 12.0221 26.3705 12.1799C26.3014 12.252 26.4046 12.352 26.4788 12.2882C27.0098 11.8316 27.8895 12.063 28.506 12.1835C28.7583 12.2326 28.953 12.2535 29.1448 12.2328C29.2842 12.2806 29.4252 12.333 29.5698 12.3961C30.0792 12.6173 30.5516 12.7081 31.1005 12.7506C32.0173 12.8218 32.9118 13.0797 33.8128 13.2598C33.9857 13.2942 34.0555 13.0492 33.8859 12.9948C33.1907 12.7719 32.4253 12.5296 31.699 12.4431C31.2228 12.3865 30.7495 12.364 30.2789 12.2612C30.0841 12.2187 29.8901 12.1436 29.6977 12.0584C29.7357 12.0326 29.7276 11.9594 29.6785 11.9522C29.5941 11.9396 29.5137 11.9366 29.4344 11.9372C29.2603 11.8545 29.088 11.7709 28.9183 11.7024C28.2486 11.432 27.4958 11.4832 26.7872 11.4401C26.0499 11.3955 25.3129 11.4041 24.6874 11.8481C24.5987 11.9112 24.6153 12.0935 24.7499 12.0786Z" fill="#171717"/>
<path d="M28.9001 44.6454C28.1008 44.4314 27.4309 44.0208 26.5971 43.9295C25.6355 43.8242 24.499 43.9752 23.6114 43.5412C23.5462 43.5094 23.4716 43.592 23.5304 43.6459C24.1821 44.2435 25.1143 44.1272 25.9424 44.1812C26.5958 44.2241 27.258 44.2686 27.821 44.631C28.1532 44.8448 28.5275 44.8668 28.9001 44.7853C28.9717 44.7696 28.9675 44.6632 28.9001 44.6454Z" fill="#171717"/>
<path d="M26.207 44.8619C25.3689 44.5636 24.5869 44.3913 23.6891 44.3015C23.0188 44.2349 22.2709 44.2842 21.6433 44.0089C21.5755 43.9796 20.8497 43.6096 21.3165 43.4201C21.7578 43.2411 22.1905 43.3644 22.4771 43.6962C22.3229 43.7052 22.1687 43.7144 22.0145 43.7248C21.9768 43.7276 21.9623 43.7673 21.9853 43.7952C22.1743 44.0259 22.4622 43.9651 22.7401 43.9645C22.8486 43.9643 22.9175 43.8438 22.8631 43.75C22.536 43.185 22.1154 43.0814 21.488 43.1667C21.1129 43.2175 20.6175 43.3968 20.9254 43.8225C21.2886 44.3254 22.2316 44.4407 22.768 44.5034C23.4225 44.5802 24.0704 44.5987 24.7227 44.709C25.2284 44.7949 25.6873 44.9382 26.2013 44.9044C26.226 44.9028 26.2301 44.8702 26.207 44.8619Z" fill="#171717"/>
<path d="M19.532 37.2632C19.6375 37.3736 19.7877 37.2128 19.696 37.0996C19.3208 36.6356 18.8598 36.3432 18.2966 36.1604C17.8195 36.0049 17.4263 35.8992 17.1394 35.4564C16.9646 35.1867 16.8541 34.8702 16.6976 34.5887C16.6694 34.5381 16.5969 34.5738 16.608 34.6264C16.7197 35.1649 16.914 35.7215 17.3763 36.0566C17.621 36.2336 17.9494 36.3078 18.2324 36.3941C18.7683 36.5571 19.1524 36.8657 19.532 37.2632Z" fill="#171717"/>
<path d="M22.1901 37.2604C21.9658 36.7903 20.9741 35.9906 20.4279 36.3101C19.9411 36.5948 20.7105 37.1975 20.975 37.2503C21.1377 37.2828 21.2078 37.0371 21.0441 37.0004C20.8592 36.959 20.293 36.4357 20.7892 36.5144C21.0618 36.5575 21.3479 36.7916 21.5476 36.958C21.651 37.0441 22.4673 37.9496 21.7113 37.9805C21.452 37.991 21.1417 37.8415 20.8993 37.7566C20.2207 37.519 19.4755 37.5065 18.8874 37.0364C18.6268 36.8275 18.4527 36.682 18.1068 36.6893C18.0525 36.6907 18.0493 36.7596 18.0947 36.7778C18.6683 37.0123 19.0731 37.496 19.6754 37.7216C20.2456 37.9356 20.9065 38.0978 21.5019 38.2405C22.2272 38.4143 22.4663 37.8402 22.1901 37.2604Z" fill="#171717"/>
<defs>
<linearGradient id="paint0_linear" x1="25.3446" y1="-16.9764" x2="27.9462" y2="66.4811" gradientUnits="userSpaceOnUse">
<stop stop-color="#FFCB00"/>
</linearGradient>
<linearGradient id="paint1_linear" x1="26.9497" y1="10.5418" x2="26.953" y2="9.80086" gradientUnits="userSpaceOnUse">
<stop stop-color="#FFCB00"/>
</linearGradient>
<linearGradient id="paint2_linear" x1="10.8175" y1="22.1869" x2="11.0483" y2="16.9146" gradientUnits="userSpaceOnUse">
<stop stop-color="#FFCB00"/>
</linearGradient>
<linearGradient id="paint3_linear" x1="17.1009" y1="45.2331" x2="17.1656" y2="41.7888" gradientUnits="userSpaceOnUse">
<stop stop-color="#FFCB00"/>
</linearGradient>
<linearGradient id="paint4_linear" x1="42.993" y1="37.6122" x2="43.3239" y2="32.1305" gradientUnits="userSpaceOnUse">
<stop stop-color="#FFCB00"/>
</linearGradient>
<linearGradient id="paint5_linear" x1="25.4491" y1="56.7096" x2="26.9082" y2="3.91923" gradientUnits="userSpaceOnUse">
<stop stop-color="#FFCB00"/>
</linearGradient>
</defs>
</svg>
