<svg width="144" height="48" viewBox="0 0 144 48" fill="none" xmlns="http://www.w3.org/2000/svg">
<path d="M97.164 7L90.556 19.74V26.544H86.636V19.74L80 7H84.424L88.624 15.932L92.796 7H97.164Z" fill="black"/>
<path d="M106.145 23.436H112.585V26.544H102.225V7H106.145V23.436Z" fill="black"/>
<path d="M144 7L138.54 26.544H133.92L130.252 12.628L126.416 26.544L121.824 26.572L116.56 7H120.76L124.204 22.176L128.18 7H132.548L136.3 22.092L139.772 7H144Z" fill="black"/>
<path d="M85.992 35.594C85.792 35.134 85.4853 34.774 85.072 34.514C84.6653 34.2473 84.1853 34.114 83.632 34.114C83.112 34.114 82.6453 34.234 82.232 34.474C81.8187 34.714 81.492 35.0573 81.252 35.504C81.012 35.944 80.892 36.4573 80.892 37.044C80.892 37.6307 81.012 38.1473 81.252 38.594C81.492 39.0407 81.8187 39.384 82.232 39.624C82.6453 39.864 83.112 39.984 83.632 39.984C84.1187 39.984 84.5553 39.8807 84.942 39.674C85.3353 39.4607 85.6487 39.1607 85.882 38.774C86.122 38.3807 86.2587 37.924 86.292 37.404H83.352V36.834H87.032V37.344C86.9987 37.9573 86.832 38.514 86.532 39.014C86.232 39.5073 85.8287 39.8973 85.322 40.184C84.822 40.4707 84.2587 40.614 83.632 40.614C82.9853 40.614 82.3987 40.464 81.872 40.164C81.3453 39.8573 80.9287 39.434 80.622 38.894C80.322 38.3473 80.172 37.7307 80.172 37.044C80.172 36.3573 80.322 35.744 80.622 35.204C80.9287 34.6573 81.3453 34.234 81.872 33.934C82.3987 33.6273 82.9853 33.474 83.632 33.474C84.3787 33.474 85.032 33.6607 85.592 34.034C86.152 34.4073 86.5587 34.9273 86.812 35.594H85.992Z" fill="black"/>
<path d="M100.164 38.884H96.9843L96.3743 40.544H95.6343L98.1843 33.644H98.9743L101.514 40.544H100.774L100.164 38.884ZM99.9543 38.304L98.5743 34.524L97.1943 38.304H99.9543Z" fill="black"/>
<path d="M117.268 33.644V40.544H116.568V35.034L114.108 40.544H113.598L111.138 35.054V40.544H110.438V33.644H111.178L113.848 39.624L116.518 33.644H117.268Z" fill="black"/>
<path d="M127.356 34.124V36.734H130.006V37.314H127.356V39.964H130.306V40.544H126.656V33.544H130.306V34.124H127.356Z" fill="black"/>
<path d="M141.605 40.614C141.145 40.614 140.738 40.534 140.385 40.374C140.038 40.214 139.765 39.9907 139.565 39.704C139.365 39.4173 139.258 39.0973 139.245 38.744H139.985C140.018 39.084 140.168 39.384 140.435 39.644C140.702 39.8973 141.092 40.024 141.605 40.024C142.078 40.024 142.452 39.904 142.725 39.664C143.005 39.4173 143.145 39.1073 143.145 38.734C143.145 38.434 143.068 38.194 142.915 38.014C142.762 37.8273 142.572 37.6907 142.345 37.604C142.118 37.5107 141.805 37.4107 141.405 37.304C140.938 37.1773 140.568 37.054 140.295 36.934C140.022 36.814 139.788 36.6273 139.595 36.374C139.402 36.1207 139.305 35.7773 139.305 35.344C139.305 34.984 139.398 34.664 139.585 34.384C139.772 34.0973 140.035 33.874 140.375 33.714C140.715 33.554 141.105 33.474 141.545 33.474C142.192 33.474 142.712 33.634 143.105 33.954C143.505 34.2673 143.735 34.674 143.795 35.174H143.035C142.988 34.8873 142.832 34.634 142.565 34.414C142.298 34.1873 141.938 34.074 141.485 34.074C141.065 34.074 140.715 34.1873 140.435 34.414C140.155 34.634 140.015 34.9373 140.015 35.324C140.015 35.6173 140.092 35.854 140.245 36.034C140.398 36.214 140.588 36.3507 140.815 36.444C141.048 36.5373 141.362 36.6373 141.755 36.744C142.208 36.8707 142.575 36.9973 142.855 37.124C143.135 37.244 143.372 37.4307 143.565 37.684C143.758 37.9373 143.855 38.2773 143.855 38.704C143.855 39.0307 143.768 39.3407 143.595 39.634C143.422 39.9273 143.165 40.164 142.825 40.344C142.485 40.524 142.078 40.614 141.605 40.614Z" fill="black"/>
<path d="M0.0547754 15.1246L0.0193001 35.7696C0.0110588 40.5656 5.35473 43.4324 9.34606 40.7731L29.9416 27.0514L50.4899 40.8438C54.4721 43.5168 59.8256 40.6684 59.8338 35.8723L59.8682 15.8752C59.8817 7.99357 52.3194 2.30981 44.7524 4.51426L43.8791 4.76865C34.2791 7.56535 24.0679 7.47109 14.5212 4.49764C7.35073 2.26432 0.0676805 7.61443 0.0547754 15.1246Z" fill="url(#paint0_linear)"/>
<path d="M30.1635 27.0569L24.13 22.7648C23.7654 22.5055 23.2698 22.8189 23.3478 23.2595L24.6409 30.5568L30.1635 27.0569Z" fill="#171717" fill-opacity="0.15"/>
<path d="M7.5919 7.00005C2.48172 9.75489 3.07345 12 3.07347 14.5" stroke="white" stroke-opacity="0.4" stroke-width="1.5" stroke-linecap="round"/>
<path d="M57.2744 26.0004L57.2744 27.0004" stroke="white" stroke-opacity="0.4" stroke-width="1.5" stroke-linecap="round"/>
<path d="M3.05251 18V20" stroke="white" stroke-opacity="0.4" stroke-width="1.5" stroke-linecap="round"/>
<path d="M57.2744 30.0004L57.2744 35.0004" stroke="white" stroke-opacity="0.4" stroke-width="1.5" stroke-linecap="round"/>
<path d="M13.0526 15L13.0526 21" stroke="black" stroke-width="2" stroke-linecap="round"/>
<path d="M10.0403 18L16.065 18" stroke="black" stroke-width="2" stroke-linecap="round"/>
<ellipse rx="1.50616" ry="1.5" transform="matrix(1 7.0266e-06 7.05545e-06 1 44.723 13.557)" fill="black"/>
<ellipse rx="1.50616" ry="1.5" transform="matrix(1 7.0266e-06 7.05545e-06 1 49.7435 17.5003)" fill="black"/>
<ellipse rx="1.50616" ry="1.5" transform="matrix(1 7.0266e-06 7.05545e-06 1 44.723 21.5003)" fill="black"/>
<ellipse rx="1.50616" ry="1.5" transform="matrix(1 7.0266e-06 7.05545e-06 1 39.7025 17.5003)" fill="black"/>
<defs>
<linearGradient id="paint0_linear" x1="29.2284" y1="-14.198" x2="30.6407" y2="55.8838" gradientUnits="userSpaceOnUse">
<stop stop-color="#FFCB00"/>
</linearGradient>
</defs>
</svg>
